<svg xmlns="http://www.w3.org/2000/svg" width="141" height="61" viewBox="0 0 141 61">
  <g fill="#FFF" fill-rule="evenodd">
    <path d="M.4893 49.4482C.8523 49.4482 1.1633 49.3172 1.4233 49.0602 1.6813 48.8022 1.8183 48.4912 1.8303 48.1282L1.8303 36.3832C1.7883 36.0462 1.6413 35.7612 1.3893 35.5322 1.1393 35.3022.8383 35.1862.4893 35.1862L.2363 35.1862.2153 34.9742 6.3633 34.9742C6.7963 34.9742 7.2683 34.9342 7.7813 34.8512 8.2893 34.7652 8.6503 34.6822 8.8603 34.5972L8.8603 37.2442 8.6503 37.2442 8.6503 36.8642C8.6503 36.5272 8.5343 36.2392 8.3033 36.0052 8.0733 35.7682 7.7973 35.6392 7.4753 35.6252L3.1963 35.6252 3.1963 42.1062 6.7403 42.1062C7.0183 42.0932 7.2603 41.9862 7.4543 41.7922 7.6493 41.5942 7.7493 41.3502 7.7493 41.0562L7.7493 40.7612 7.9563 40.7612 7.9563 44.0792 7.7493 44.0792 7.7493 43.7612C7.7493 43.4812 7.6543 43.2442 7.4653 43.0492 7.2763 42.8542 7.0393 42.7502 6.7613 42.7332L3.1963 42.7332 3.1963 49.0062 6.1953 49.0062C7.2303 49.0062 8.0193 48.7752 8.5673 48.3152 9.1113 47.8512 9.5653 47.1672 9.9313 46.2602L10.1403 46.2602 8.9223 49.6582.2153 49.6582.2153 49.4482.4893 49.4482zM16.0869 47.8359C14.6969 46.4329 14.0009 44.5919 14.0009 42.3059 14.0009 40.0189 14.6969 38.1779 16.0869 36.7789 17.4799 35.3829 19.3229 34.6829 21.6169 34.6829 23.4909 34.6829 25.1469 35.1579 26.5889 36.1079L27.0079 39.0649 26.8199 39.0649C26.5129 37.8639 25.8899 36.9389 24.9519 36.2869 24.0159 35.6379 22.9029 35.3119 21.6169 35.3119 19.7829 35.3119 18.3179 35.9469 17.2219 37.2209 16.1249 38.4949 15.5739 40.1769 15.5739 42.2729 15.5739 44.3709 16.1159 46.0589 17.2019 47.3409 18.2849 48.6179 19.7149 49.2789 21.4919 49.3229 23.0569 49.3229 24.3639 48.8959 25.4139 48.0429 26.5479 47.1169 27.2329 45.6159 27.4699 43.5299L27.6369 43.5299 27.3859 46.8249C26.1139 48.9079 24.1489 49.9529 21.4919 49.9529 19.2809 49.9359 17.4799 49.2309 16.0869 47.8359M42.2612 49.4482C42.6272 49.4482 42.9382 49.3232 43.1952 49.0682 43.4542 48.8192 43.5902 48.5112 43.6042 48.1482L43.6042 42.7132 35.0222 42.7132 35.0222 48.1282C35.0222 48.4912 35.1572 48.8022 35.4232 49.0602 35.6882 49.3172 36.0012 49.4482 36.3672 49.4482L36.6362 49.4482 36.6362 49.6582 32.0432 49.6582 32.0432 49.4482 32.3172 49.4482C32.6802 49.4482 32.9912 49.3172 33.2502 49.0602 33.5092 48.8022 33.6462 48.4912 33.6602 48.1282L33.6602 36.4862C33.6462 36.1232 33.5092 35.8182 33.2502 35.5632 32.9912 35.3112 32.6802 35.1862 32.3172 35.1862L32.0432 35.1862 32.0432 34.9742 36.6362 34.9742 36.6362 35.1862 36.3672 35.1862C36.0012 35.1862 35.6902 35.3112 35.4332 35.5632 35.1762 35.8182 35.0372 36.1232 35.0222 36.4862L35.0222 42.0872 43.6042 42.0872 43.6042 36.4862C43.5902 35.9832 43.3652 35.6042 42.9332 35.3552 42.7222 35.2402 42.4982 35.1862 42.2612 35.1862L41.9902 35.1862 41.9902 34.9742 46.5842 34.9742 46.5842 35.1862 46.3112 35.1862C45.9482 35.1862 45.6362 35.3152 45.3772 35.5732 45.1192 35.8332 44.9802 36.1432 44.9682 36.5072L44.9682 48.1282C44.9802 48.4912 45.1192 48.8022 45.3772 49.0602 45.6362 49.3172 45.9482 49.4482 46.3112 49.4482L46.5842 49.4482 46.5842 49.6582 41.9902 49.6582 41.9902 49.4482 42.2612 49.4482zM54.2314 47.3936C55.3144 48.6796 56.7484 49.3236 58.5314 49.3236 60.3164 49.3236 61.7504 48.6796 62.8344 47.3936 63.9164 46.1066 64.4614 44.4136 64.4614 42.3166 64.4614 40.9306 64.2144 39.7076 63.7264 38.6466 63.2364 37.5846 62.5394 36.7596 61.6384 36.1836 60.7334 35.6016 59.6954 35.3116 58.5214 35.3116 56.7464 35.3116 55.3144 35.9546 54.2314 37.2446 53.1494 38.5286 52.6064 40.2196 52.6064 42.3166 52.6064 44.4136 53.1494 46.1066 54.2314 47.3936M53.0794 36.7926C54.4694 35.3866 56.2844 34.6826 58.5214 34.6826 60.7604 34.6826 62.5784 35.3866 63.9784 36.7926 65.3774 38.1966 66.0764 40.0366 66.0764 42.3166 66.0764 44.5936 65.3774 46.4366 63.9784 47.8416 62.5784 49.2476 60.7604 49.9536 58.5214 49.9536 56.2844 49.9536 54.4694 49.2476 53.0794 47.8416 51.6844 46.4366 50.9904 44.5936 50.9904 42.3166 50.9904 40.0366 51.6844 38.1966 53.0794 36.7926M83.7656 49.4482C84.1286 49.4482 84.4406 49.3172 84.7006 49.0602 84.9586 48.8022 85.0946 48.4912 85.1086 48.1282L85.1086 36.5072C85.0946 36.1432 84.9586 35.8332 84.7006 35.5732 84.4406 35.3152 84.1286 35.1862 83.7656 35.1862L83.4906 35.1862 83.4906 34.9742 88.0866 34.9742 88.0866 35.1862 87.8116 35.1862C87.3076 35.1862 86.9256 35.4032 86.6606 35.8352 86.5356 36.0462 86.4726 36.2682 86.4726 36.5072L86.4726 49.0062 89.4716 49.0062C90.5026 49.0062 91.2966 48.7752 91.8416 48.3152 92.3856 47.8512 92.8376 47.1672 93.2056 46.2602L93.4126 46.2602 92.1946 49.6582 83.4906 49.6582 83.4906 49.4482 83.7656 49.4482zM100.8115 43.9297L105.9735 43.9297 103.4595 37.2007 100.8115 43.9297zM111.1295 49.4487L111.3015 49.4487 111.3015 49.6587 106.5805 49.6587 106.5805 49.4487 106.7665 49.4487C107.0635 49.4487 107.2815 49.3527 107.4305 49.1657 107.5765 48.9767 107.6515 48.7977 107.6515 48.6277 107.6515 48.4627 107.6235 48.2957 107.5685 48.1277L106.2235 44.5607 100.5635 44.5607 99.1605 48.1487C99.1045 48.3157 99.0775 48.4807 99.0775 48.6407 99.0775 48.8027 99.1495 48.9767 99.2935 49.1657 99.4385 49.3527 99.6635 49.4487 99.9575 49.4487L100.1455 49.4487 100.1455 49.6587 95.9295 49.6587 95.9295 49.4487 96.1155 49.4487C96.4675 49.4487 96.8085 49.3357 97.1465 49.1097 97.4785 48.8897 97.7545 48.5617 97.9665 48.1277L102.7075 36.8417C103.2195 35.7097 103.4805 34.9907 103.4805 34.6827L103.6705 34.6827 109.2825 48.1277C109.4795 48.5617 109.7495 48.8897 110.0815 49.1097 110.4175 49.3357 110.7665 49.4487 111.1295 49.4487zM128.5146 51.8555L124.2416 46.8185 120.0196 41.8545 124.9456 36.1505C125.5336 35.4945 126.2866 35.1625 127.2126 35.1625L127.2966 35.1625 127.2966 34.9745 122.8706 34.9745 122.8706 35.1625 123.0776 35.1625C123.3746 35.1625 123.5766 35.2695 123.6916 35.4795 123.7326 35.5635 123.7526 35.6605 123.7526 35.7725 123.7526 35.8845 123.6946 36.0115 123.5826 36.1505L118.6326 42.3585 123.0676 47.7145 123.0846 47.7145 126.4526 51.7315C127.1296 52.5285 128.1756 52.9245 129.6026 52.9245L130.5046 52.9245 130.5046 52.7165C129.7386 52.7015 129.0746 52.4165 128.5146 51.8555"/>
    <path d="M118.3623 49.0605C118.0923 48.8025 117.9653 48.4915 117.9653 48.1275L117.9653 36.4865C117.9743 36.1225 118.1143 35.8185 118.3693 35.5635 118.6333 35.3115 118.9393 35.1865 119.3033 35.1865L119.5793 35.1865 119.5793 34.9745 114.9883 34.9745 114.9883 35.1865 115.2583 35.1865C115.6213 35.1865 115.9323 35.3115 116.1913 35.5635 116.4503 35.8185 116.5853 36.1225 116.5993 36.4865L116.5993 48.1275C116.5853 48.4915 116.4503 48.8025 116.1913 49.0605 115.9323 49.3175 115.6213 49.4485 115.2583 49.4485L114.9883 49.4485 114.9883 49.6585 119.5793 49.6585 119.5793 49.4485 119.3033 49.4485C118.9393 49.4485 118.6283 49.3175 118.3623 49.0605M131.1338 49.4482C131.4948 49.4482 131.8058 49.3172 132.0678 49.0602 132.3248 48.8022 132.4618 48.4912 132.4768 48.1282L132.4768 36.3832C132.4348 36.0462 132.2828 35.7612 132.0348 35.5322 131.7808 35.3022 131.4808 35.1862 131.1338 35.1862L130.8778 35.1862 130.8578 34.9742 137.0058 34.9742C137.4418 34.9742 137.9108 34.9342 138.4198 34.8512 138.9268 34.7652 139.2898 34.6822 139.4978 34.5972L139.4978 37.2442 139.2898 37.2442 139.2898 36.8642C139.2898 36.5272 139.1768 36.2392 138.9428 36.0052 138.7128 35.7682 138.4368 35.6392 138.1128 35.6252L133.8388 35.6252 133.8388 42.1062 137.3828 42.1062C137.6618 42.0932 137.9018 41.9862 138.0978 41.7922 138.2918 41.5942 138.3888 41.3502 138.3888 41.0562L138.3888 40.7612 138.6018 40.7612 138.6018 44.0792 138.3888 44.0792 138.3888 43.7612C138.3888 43.4812 138.2948 43.2442 138.1048 43.0492 137.9168 42.8542 137.6828 42.7502 137.4038 42.7332L133.8388 42.7332 133.8388 49.0062 136.8388 49.0062C137.8698 49.0062 138.6638 48.7752 139.2078 48.3152 139.7518 47.8512 140.2078 47.1672 140.5668 46.2602L140.7798 46.2602 139.5608 49.6582 130.8578 49.6582 130.8578 49.4482 131.1338 49.4482zM76.9844 57.9443C76.9924 58.2023 77.0004 58.4513 77.0084 58.7003L77.0084 58.7153C76.9524 58.8373 76.8324 58.9333 76.6954 58.9493L76.6464 58.9493C76.4544 58.9493 76.2854 58.8043 76.2694 58.6033 76.2694 58.5803 76.2284 58.2173 76.1654 57.5593L76.1654 57.5103C76.0764 55.5493 75.9154 52.9553 75.5864 50.0383 75.2324 46.9273 74.6944 43.4653 73.8664 40.0093 72.7974 35.5423 71.3514 30.9933 69.8884 26.8713 69.3744 26.9113 68.8684 26.6303 68.6754 26.1163L64.5614 15.3883C64.3844 14.9303 64.5054 14.4403 64.8264 14.1113 64.0874 12.4233 63.6214 11.4273 63.6054 11.3873 63.5084 11.1863 63.5884 10.9533 63.7904 10.8573 63.9904 10.7603 64.2324 10.8483 64.3204 11.0493 64.3444 11.0813 64.8104 12.0863 65.5574 13.7813 66.0884 13.7253 66.6024 14.0063 66.8034 14.5283L70.9094 25.2563C71.0934 25.7303 70.9654 26.2363 70.6204 26.5583 72.1064 30.7203 73.5614 35.3083 74.6374 39.8253 74.8314 40.6283 75.0074 41.4313 75.1684 42.2273 75.0234 38.5393 74.9354 34.5213 74.9594 30.4793 74.9834 26.1483 75.1444 21.7533 75.3614 17.7273 74.8384 17.5583 74.4684 17.0763 74.5174 16.5063L75.3614 5.0473C75.4094 4.4923 75.8274 4.0743 76.3494 3.9783 76.5184 2.0333 76.6464.8843 76.6464.8363 76.6714.6273 76.8554.4753 77.0724.4993 77.2814.5153 77.4424.7083 77.4184.9243 77.4184.9653 77.2974 2.1223 77.1214 4.0673 77.5304 4.2833 77.7964 4.7343 77.7634 5.2233L76.9124 16.6903C76.8724 17.1643 76.5584 17.5423 76.1404 17.7113 75.9314 21.7443 75.7624 26.1483 75.7384 30.4873 75.6904 37.4623 76.0044 44.3653 76.3334 49.5803 76.5904 53.6303 76.8634 56.6513 76.9764 57.8963 76.9844 57.9133 76.9844 57.9283 76.9844 57.9443"/>
    <path d="M75.5859 50.0381C75.9149 52.9551 76.0759 55.5501 76.1649 57.5111 76.0359 56.1121 75.8109 53.4691 75.5859 50.0381M77.0088 58.7158L77.0088 58.6998C76.9998 58.4508 76.9918 58.2018 76.9848 57.9448 77.0168 58.3068 77.0398 58.5068 77.0398 58.5238 77.0488 58.5958 77.0318 58.6598 77.0088 58.7158M76.9766 57.8965C76.8636 56.6515 76.5906 53.6295 76.3326 49.5805 76.7036 52.6975 76.8876 55.5495 76.9766 57.8965M77.0088 58.7158C76.9998 58.9248 76.8318 59.1018 76.6138 59.1108L76.6068 59.1108C76.3898 59.1108 76.2128 58.9418 76.2048 58.7248 76.1968 58.3708 76.1808 57.9768 76.1648 57.5598 76.2288 58.2178 76.2698 58.5798 76.2698 58.6038 76.2848 58.8048 76.4538 58.9488 76.6468 58.9488L76.6958 58.9488C76.8318 58.9338 76.9518 58.8368 77.0088 58.7158"/>
    <path d="M95.2119,15.4697 C95.0469,15.2227 94.8169,14.9967 94.5159,14.8787 C94.2199,14.7627 93.8839,14.7557 93.5879,14.8287 C92.9849,14.9627 92.5029,15.3357 92.0589,15.6427 C91.5969,15.9747 91.1499,16.3157 90.7189,16.6777 C88.9819,18.1107 87.4409,19.7567 86.0099,21.4827 C85.2959,22.3467 84.5979,23.2267 83.9469,24.1367 C83.2829,25.0637 82.6959,26.0207 82.1479,27.0107 C81.0489,28.9857 80.1559,31.0617 79.4269,33.1897 C77.9579,37.4497 77.1079,41.8747 76.5079,46.3047 C76.3419,47.5067 76.2129,48.7187 76.1079,49.9337 C76.0159,49.6157 75.9229,49.2977 75.8179,48.9857 C74.5509,45.3317 72.5059,42.0357 70.2049,39.0077 C67.8979,36.0307 65.5579,33.0777 63.5869,29.8707 C61.6589,26.6437 60.0229,23.2087 59.1479,19.5367 L59.1479,19.5327 C59.1269,19.4617 59.0579,19.4257 58.9849,19.4457 C58.9169,19.4657 58.8769,19.5347 58.8959,19.6007 C59.8319,23.2747 61.3429,26.7887 63.2319,30.0777 C65.0769,33.3847 67.1999,36.5477 69.4499,39.5757 C71.6669,42.5877 73.5909,45.8327 74.7589,49.3417 C75.3359,51.0257 75.7129,52.7717 75.8979,54.5387 C75.8839,55.6907 75.9059,56.8387 75.9659,57.9867 C75.9029,58.7997 75.9489,59.3657 76.0559,59.7057 C76.0559,59.7167 76.0559,59.7257 76.0579,59.7357 L76.0579,59.7527 C76.0839,60.0567 76.3479,60.2827 76.6529,60.2597 C76.9579,60.2337 77.1869,59.9677 77.1589,59.6607 C77.0909,58.8327 77.0539,58.0057 77.0289,57.1807 C77.0619,56.3997 77.0579,55.6167 77.0089,54.8387 C77.0509,52.0397 77.2929,49.2437 77.6219,46.4497 C78.1769,42.0577 78.9749,37.6917 80.3699,33.5107 C81.0659,31.4207 81.9179,29.3887 82.9669,27.4567 C83.9929,25.5227 85.2689,23.7357 86.6389,21.9877 C88.0009,20.2547 89.4649,18.5947 91.0889,17.1037 C91.4929,16.7307 91.9179,16.3777 92.3429,16.0407 C92.7879,15.7007 93.1929,15.3477 93.6849,15.2047 C94.1679,15.0387 94.6769,15.1947 94.9879,15.6307 C95.3039,16.0457 95.4759,16.5847 95.5689,17.1207 C95.5729,17.1577 95.6109,17.1927 95.6519,17.1907 C95.6979,17.1847 95.7319,17.1457 95.7249,17.0997 C95.6689,16.5357 95.5309,15.9697 95.2119,15.4697"/>
  </g>
</svg>
