<?xml version="1.0" encoding="utf-8"?>
<!-- Generator: Adobe Illustrator 23.1.1, SVG Export Plug-In . SVG Version: 6.00 Build 0)  -->
<svg version="1.1" id="Layer_1" xmlns="http://www.w3.org/2000/svg" xmlns:xlink="http://www.w3.org/1999/xlink" x="0px" y="0px"
	 viewBox="0 0 100.8 86.4" style="enable-background:new 0 0 100.8 86.4;" xml:space="preserve">
<style type="text/css">
	.st0{fill:#A7A9AC;}
	.st1{fill:#E0E622;}
	.st2{fill:#FFFFFF;}
</style>
<g>
	<g>
		<path class="st0" d="M36.45,42.91c3.12,0.7,6.88-0.44,9.71-3.27c0.86-0.86,1.56-1.81,2.1-2.8c0.71-1.29,1.14-2.66,1.29-4
			c0.11-1,0.07-1.98-0.14-2.91c-0.92-0.21-1.91-0.25-2.9-0.14c-1.34,0.15-2.7,0.58-3.99,1.29c-0.99,0.54-1.95,1.25-2.81,2.12
			C36.88,36.02,35.74,39.78,36.45,42.91z M37.99,41.37c-0.57-2.51,0.34-5.54,2.62-7.82c0.7-0.7,1.46-1.27,2.26-1.7
			c1.04-0.57,2.14-0.92,3.22-1.04c0.8-0.09,1.59-0.06,2.34,0.11c0.17,0.75,0.21,1.54,0.12,2.35c-0.12,1.08-0.47,2.18-1.04,3.22
			c-0.44,0.8-1,1.56-1.69,2.26C43.53,41.02,40.5,41.94,37.99,41.37z"/>
		<path class="st0" d="M63.92,15.4c-3.12-0.7-6.88,0.44-9.71,3.27c-0.86,0.86-1.56,1.81-2.1,2.8c-0.71,1.29-1.14,2.66-1.29,4
			c-0.11,1-0.07,1.98,0.14,2.91c0.92,0.21,1.91,0.25,2.9,0.14c1.34-0.15,2.7-0.58,3.99-1.29c0.99-0.54,1.95-1.25,2.81-2.12
			C63.5,22.28,64.63,18.52,63.92,15.4z M62.39,16.93c0.57,2.51-0.34,5.54-2.62,7.82c-0.7,0.7-1.46,1.27-2.26,1.7
			c-1.04,0.57-2.14,0.92-3.22,1.04c-0.8,0.09-1.59,0.06-2.34-0.11c-0.17-0.75-0.21-1.54-0.12-2.35c0.12-1.08,0.47-2.18,1.04-3.22
			c0.44-0.8,1-1.56,1.69-2.26C56.84,17.29,59.87,16.37,62.39,16.93z"/>
	</g>
	<g>
		<path class="st0" d="M63.94,42.89c0.7-3.12-0.44-6.88-3.27-9.71c-0.86-0.86-1.81-1.56-2.8-2.1c-1.29-0.71-2.66-1.14-4-1.29
			c-1-0.11-1.98-0.07-2.91,0.14c-0.21,0.92-0.25,1.91-0.14,2.9c0.15,1.34,0.58,2.7,1.29,3.99c0.54,0.99,1.25,1.95,2.12,2.81
			C57.06,42.46,60.82,43.6,63.94,42.89z M62.4,41.35c-2.51,0.57-5.54-0.34-7.82-2.62c-0.7-0.7-1.27-1.46-1.7-2.26
			c-0.57-1.04-0.92-2.14-1.04-3.22c-0.09-0.8-0.06-1.59,0.11-2.34c0.75-0.17,1.54-0.21,2.35-0.12c1.08,0.12,2.18,0.47,3.22,1.04
			c0.8,0.44,1.56,1,2.26,1.69C62.05,35.81,62.97,38.84,62.4,41.35z"/>
		<path class="st0" d="M36.43,15.42c-0.7,3.12,0.44,6.88,3.27,9.71c0.86,0.86,1.81,1.56,2.8,2.1c1.29,0.71,2.66,1.14,4,1.29
			c1,0.11,1.98,0.07,2.91-0.14c0.21-0.92,0.25-1.91,0.14-2.9c-0.15-1.34-0.58-2.7-1.29-3.99c-0.54-0.99-1.25-1.95-2.12-2.81
			C43.31,15.84,39.55,14.71,36.43,15.42z M37.97,16.95c2.51-0.57,5.54,0.34,7.82,2.62c0.7,0.7,1.27,1.46,1.7,2.26
			c0.57,1.04,0.92,2.14,1.04,3.22c0.09,0.8,0.06,1.59-0.11,2.34c-0.75,0.17-1.54,0.21-2.35,0.12c-1.08-0.12-2.18-0.47-3.22-1.04
			c-0.8-0.44-1.56-1-2.26-1.69C38.32,22.49,37.4,19.47,37.97,16.95z"/>
	</g>
</g>
<g>
	<path class="st1" d="M50.2,54.65c3.55-2.24,5.98-6.79,5.97-12.03c0-1.6-0.23-3.13-0.65-4.55c-0.54-1.86-1.41-3.53-2.51-4.91
		c-0.82-1.03-1.78-1.9-2.83-2.57c-1.05,0.66-2,1.54-2.82,2.56c-1.1,1.38-1.97,3.05-2.51,4.9c-0.42,1.43-0.64,2.96-0.64,4.57
		C44.21,47.87,46.65,52.42,50.2,54.65z M50.2,51.8c-2.86-1.8-4.82-5.46-4.83-9.68c0-1.29,0.18-2.53,0.52-3.68
		c0.44-1.5,1.13-2.84,2.02-3.95c0.66-0.83,1.43-1.53,2.27-2.06c0.85,0.54,1.62,1.24,2.28,2.07c0.89,1.11,1.59,2.45,2.02,3.95
		c0.33,1.15,0.52,2.38,0.52,3.66C55.02,46.33,53.06,50,50.2,51.8z"/>
	<path class="st1" d="M50.17,3.65c-3.55,2.24-5.98,6.79-5.97,12.03c0,1.6,0.23,3.13,0.65,4.55c0.54,1.86,1.41,3.53,2.51,4.91
		c0.82,1.03,1.78,1.9,2.83,2.57c1.05-0.66,2-1.54,2.82-2.56c1.1-1.38,1.97-3.05,2.51-4.9c0.42-1.43,0.64-2.96,0.64-4.57
		C56.16,10.43,53.72,5.89,50.17,3.65z M50.17,6.5c2.86,1.8,4.82,5.46,4.83,9.68c0,1.29-0.18,2.53-0.52,3.68
		c-0.44,1.5-1.13,2.84-2.02,3.95c-0.66,0.83-1.43,1.53-2.27,2.06c-0.85-0.54-1.62-1.24-2.28-2.07c-0.89-1.11-1.59-2.45-2.02-3.95
		c-0.33-1.15-0.52-2.38-0.52-3.66C45.35,11.97,47.31,8.31,50.17,6.5z"/>
</g>
<g>
	<path class="st1" d="M75.69,29.13c-2.24-3.55-6.79-5.98-12.03-5.97c-1.6,0-3.13,0.23-4.55,0.65c-1.86,0.54-3.53,1.41-4.91,2.51
		c-1.03,0.82-1.9,1.78-2.57,2.83c0.66,1.05,1.54,2,2.56,2.82c1.38,1.1,3.05,1.97,4.9,2.51c1.43,0.42,2.96,0.64,4.57,0.64
		C68.91,35.12,73.45,32.69,75.69,29.13z M72.84,29.14c-1.8,2.86-5.46,4.82-9.68,4.83c-1.29,0-2.53-0.18-3.68-0.52
		c-1.5-0.44-2.84-1.13-3.95-2.02C54.7,30.76,54,30,53.46,29.15c0.54-0.85,1.24-1.62,2.07-2.28c1.11-0.89,2.45-1.59,3.95-2.02
		c1.15-0.33,2.38-0.52,3.66-0.52C67.37,24.32,71.03,26.28,72.84,29.14z"/>
	<path class="st1" d="M24.68,29.17c2.24,3.55,6.79,5.98,12.03,5.97c1.6,0,3.13-0.23,4.55-0.65c1.86-0.54,3.53-1.41,4.91-2.51
		c1.03-0.82,1.9-1.78,2.57-2.83c-0.66-1.05-1.54-2-2.56-2.82c-1.38-1.1-3.05-1.97-4.9-2.51c-1.43-0.42-2.96-0.64-4.57-0.64
		C31.46,23.18,26.92,25.62,24.68,29.17z M27.53,29.17c1.8-2.86,5.46-4.82,9.68-4.83c1.29,0,2.53,0.18,3.68,0.52
		c1.5,0.44,2.84,1.13,3.95,2.02c0.83,0.66,1.53,1.43,2.06,2.27c-0.54,0.85-1.24,1.62-2.07,2.28c-1.11,0.89-2.45,1.59-3.95,2.02
		c-1.15,0.33-2.38,0.52-3.66,0.52C33,33.98,29.34,32.03,27.53,29.17z"/>
</g>
<g>
	<path class="st2" d="M13.05,57.93c3.97,0,7.19,3.02,7.19,7.19s-3.22,7.19-7.19,7.19c-3.97,0-7.17-3.02-7.17-7.19
		S9.08,57.93,13.05,57.93z M13.05,70.15c2.82,0,4.92-2.05,4.92-5.03c0-3.02-2.09-5.03-4.92-5.03c-2.84,0-4.9,2.01-4.9,5.03
		C8.16,68.1,10.21,70.15,13.05,70.15z"/>
	<path class="st2" d="M35.18,58.21l-6.44,13.82h-1.76l-6.44-13.82h2.47l4.68,10.19l0.18,0.47l0.16-0.47l4.7-10.19H35.18z"/>
	<path class="st2" d="M44.36,69.14h-7.38l-1.4,2.88h-2.43l6.79-13.82h1.46l6.79,13.82h-2.43L44.36,69.14z M43.35,67.09l-2.53-5.21
		l-0.16-0.43l-0.16,0.43l-2.53,5.21H43.35z"/>
	<path class="st2" d="M58.2,58.21v2.05h-4.48v11.77h-2.19V60.26h-4.44v-2.05H58.2z"/>
	<path class="st2" d="M60.29,72.03V58.21h2.19v13.82H60.29z"/>
	<path class="st2" d="M72.19,57.93c3.97,0,7.19,3.02,7.19,7.19s-3.22,7.19-7.19,7.19c-3.97,0-7.17-3.02-7.17-7.19
		S68.23,57.93,72.19,57.93z M72.19,70.15c2.82,0,4.92-2.05,4.92-5.03c0-3.02-2.09-5.03-4.92-5.03c-2.84,0-4.9,2.01-4.9,5.03
		C67.3,68.1,69.35,70.15,72.19,70.15z"/>
	<path class="st2" d="M93.75,58.21v13.82H91.7l-7.23-9.5l-0.28-0.45l0.04,0.53v9.42h-2.19V58.21h2.05l7.25,9.42l0.26,0.49
		l-0.04-0.57v-9.34H93.75z"/>
</g>
<g>
	<path class="st2" d="M18.41,81.86h-3.69l-0.7,1.44H12.8l3.4-6.91h0.73l3.4,6.91h-1.21L18.41,81.86z M17.9,80.84l-1.26-2.61
		l-0.08-0.22l-0.08,0.22l-1.26,2.61H17.9z"/>
	<path class="st2" d="M25.32,76.39v1.03h-2.24v5.88h-1.1v-5.88h-2.22v-1.03H25.32z"/>
	<path class="st2" d="M34.29,83.3l-1.53-2.47c-0.06,0-0.13,0-0.19,0h-1.16v2.47h-1.1v-6.91h2.26c1.66,0,2.66,0.86,2.66,2.22
		c0,0.97-0.5,1.68-1.38,2.01l1.67,2.68H34.29z M32.7,79.81c0.94,0,1.39-0.51,1.39-1.19c0-0.71-0.48-1.19-1.39-1.19h-1.29v2.39H32.7z
		"/>
	<path class="st2" d="M36.76,83.3v-6.91h1.1v6.91H36.76z"/>
	<path class="st2" d="M46.12,76.39L42.9,83.3h-0.88l-3.22-6.91h1.23l2.34,5.09l0.09,0.24l0.08-0.24l2.35-5.09H46.12z"/>
	<path class="st2" d="M51.88,82.28v1.03h-4.81v-6.91h4.75v1.03h-3.65v1.8h2.91v1h-2.91v2.06H51.88z"/>
	<path class="st2" d="M57.37,83.3l-1.53-2.47c-0.06,0-0.13,0-0.19,0h-1.16v2.47h-1.1v-6.91h2.26c1.66,0,2.66,0.86,2.66,2.22
		c0,0.97-0.5,1.68-1.38,2.01l1.67,2.68H57.37z M55.78,79.81c0.94,0,1.39-0.51,1.39-1.19c0-0.71-0.48-1.19-1.39-1.19h-1.29v2.39
		H55.78z"/>
	<path class="st2" d="M68.55,76.39l-2.76,6.91h-0.75l-1.27-3.5l-0.08-0.3l-0.09,0.3l-1.27,3.5h-0.75l-2.75-6.91h1.16l1.9,4.73
		l0.07,0.27l0.07-0.27l1.37-3.69h0.59l1.37,3.69l0.07,0.27l0.07-0.27l1.9-4.73H68.55z"/>
	<path class="st2" d="M73.13,81.86h-3.69l-0.7,1.44h-1.21l3.4-6.91h0.73l3.4,6.91h-1.21L73.13,81.86z M72.62,80.84l-1.26-2.61
		l-0.08-0.22l-0.08,0.22l-1.26,2.61H72.62z"/>
	<path class="st2" d="M80.53,82.28v1.03h-4.65v-6.91h1.1v5.88H80.53z"/>
	<path class="st2" d="M87.22,76.39l-2.83,2.84l3.11,4.07h-1.36L83.63,80l-0.94,0.94v2.37h-1.1v-6.91h1.1v3.23l3.25-3.23H87.22z"/>
</g>
<g>
	<path class="st1" d="M72.37,66.47c0.71,0,1.28-0.57,1.28-1.28c0-0.71-0.57-1.28-1.28-1.28c-0.71,0-1.28,0.57-1.28,1.28
		C71.09,65.9,71.66,66.47,72.37,66.47"/>
</g>
</svg>
