<svg xmlns="http://www.w3.org/2000/svg" width="491" height="52" viewBox="0 0 491 52">
  <g fill="#85653A" fill-rule="evenodd">
    <path d="M2.3891 34.5293L2.3891 18.2763C-.1629 24.8763-.1639 30.7773 2.3891 34.5293M6.8266 38.5186L6.8266 10.4976 6.4256 11.0066C5.8426 11.7476 5.2726 12.5716 4.7316 13.4586L4.7316 37.0156C5.2446 37.4416 5.7866 37.8406 6.3426 38.2026L6.8266 38.5186z"/>
    <polygon points="9.168 40.042 11.263 41.405 11.263 4.857 9.168 7.52"/>
    <polygon points="13.606 51.619 15.701 51.619 15.701 1.88 14.654 .549 13.606 1.88"/>
    <polygon points="18.043 41.405 20.138 40.042 20.138 7.52 18.043 4.857"/>
    <path d="M22.4804 10.4976L22.4804 38.5176 22.9644 38.2026C23.5204 37.8406 24.0614 37.4416 24.5754 37.0156L24.5754 13.4586C24.0344 12.5716 23.4644 11.7476 22.8814 11.0076L22.4804 10.4976zM26.9174 18.2754L26.9174 34.5294C29.4714 30.7784 29.4704 24.8764 26.9174 18.2754M46.6855 16.4976C44.2775 16.4976 42.7375 17.6456 42.7375 19.5496 42.7375 21.7336 45.3415 22.4056 47.9175 23.3576 50.4655 24.3096 53.0135 25.5416 53.0135 28.8176 53.0135 33.2126 49.1775 34.8656 46.3775 34.8656 43.6055 34.8656 41.5055 34.0806 39.4895 32.0936L41.0575 30.6936C42.9895 32.6536 44.4735 32.9606 46.4055 32.9606 48.6455 32.9606 50.8015 31.7856 50.8015 29.1536 50.8015 26.8016 48.5615 25.9336 46.1815 25.0376 43.4935 24.0296 40.6095 23.0216 40.6095 19.8296 40.6095 16.2456 43.2695 14.5936 46.3495 14.5936 48.5895 14.5936 50.5215 15.2096 52.1735 16.4696L50.8015 17.9816C49.9615 17.1416 48.2255 16.4976 46.6855 16.4976M59.4257 28.1729L66.7337 28.1729 63.3177 17.8409 63.2897 17.8409 59.4257 28.1729zM62.4497 14.9289L64.3257 14.9289 71.1577 34.5289 68.8337 34.5289 67.3497 30.0769 58.7257 30.0769 57.0457 34.5289 54.8897 34.5289 62.4497 14.9289zM83.3085 25.8491L83.3085 23.9451 90.5045 23.9451 90.5045 31.2251C88.7125 33.4371 85.8565 34.8651 82.6925 34.8651 76.6735 34.8651 72.1375 30.7771 72.1375 24.7291 72.1375 18.9051 76.8975 14.5931 82.7205 14.5931 85.6045 14.5931 88.2365 15.9371 90.0005 17.8971L88.4895 19.0731C87.1175 17.5611 84.9605 16.4971 82.6925 16.4971 77.9055 16.4971 74.3495 19.9131 74.3495 24.7291 74.3495 29.7411 77.7095 32.9611 82.7205 32.9611 84.9895 32.9611 86.9765 32.1781 88.4325 30.8061L88.4325 25.8491 83.3085 25.8491z"/>
    <polygon points="95.125 34.529 95.125 14.929 106.521 14.929 106.521 16.833 97.197 16.833 97.197 23.441 106.521 23.441 106.521 25.345 97.197 25.345 97.197 32.625 106.521 32.625 106.521 34.529"/>
    <polygon points="111.364 34.529 111.364 14.929 115.368 14.929 115.368 31.141 123.404 31.141 123.404 34.529"/>
    <polygon points="125.28 34.529 129.284 34.529 129.284 14.929 125.28 14.929"/>
    <polygon points="137.236 26.633 137.236 34.529 133.232 34.529 133.232 14.929 144.096 14.929 144.096 18.317 137.236 18.317 137.236 23.245 144.096 23.245 144.096 26.633"/>
    <polygon points="146.895 34.529 146.895 14.929 159.467 14.929 159.467 18.317 150.899 18.317 150.899 22.741 159.467 22.741 159.467 26.129 150.899 26.129 150.899 31.141 159.467 31.141 159.467 34.529"/>
    <polygon points="185.386 34.529 185.386 14.966 187.454 14.966 187.454 32.628 196.175 32.628 196.175 34.529"/>
    <path d="M198.304,34.53 L200.206,34.53 L200.206,20.891 L198.304,20.891 L198.304,34.53 Z M198.304,17.844 L200.206,17.844 L200.206,15.216 L198.304,15.216 L198.304,17.844 Z"/>
    <polygon points="202.696 20.891 204.764 20.891 208.621 32.433 212.729 20.891 214.77 20.891 209.683 34.53 207.334 34.53"/>
    <path d="M217.094 34.53L218.995 34.53 218.995 20.891 217.094 20.891 217.094 34.53zM217.094 17.844L218.995 17.844 218.995 15.216 217.094 15.216 217.094 17.844zM225.4267 20.8906L225.4267 23.2936C226.5167 21.4766 228.1937 20.5556 230.2897 20.5556 234.1747 20.5556 235.4327 23.0426 235.4327 27.1516L235.4327 34.5296 233.5307 34.5296 233.5307 27.4566C233.5307 24.8866 233.0567 22.2886 230.0097 22.2886 227.9697 22.2886 226.3217 23.7416 225.4267 25.4726L225.4267 34.5296 223.5257 34.5296 223.5257 20.8906 225.4267 20.8906zM249.89 24.4409C248.883 23.1259 247.123 22.2889 245.557 22.2889 242.595 22.2889 240.471 24.7469 240.471 27.4869 240.471 30.2529 242.567 32.7959 245.557 32.7959 247.235 32.7959 249.108 31.8179 249.89 30.2259L249.89 24.4409zM251.79 33.7479C251.79 38.5559 248.548 40.6769 244.914 40.6769 242.818 40.6769 240.639 39.8959 238.933 38.7509L239.717 37.1569C240.918 38.1069 242.931 38.9459 244.887 38.9459 247.457 38.9459 249.89 37.6889 249.89 34.3339L249.89 32.4329C248.856 33.8029 247.178 34.5289 245.501 34.5289 241.505 34.5289 238.514 31.3159 238.514 27.5979 238.514 23.8789 241.533 20.5549 245.53 20.5549 247.067 20.5549 248.715 21.1419 249.89 22.2309L249.89 20.8909 251.79 20.8909 251.79 33.7479zM264.7416 22.6221L264.7416 30.1411C264.7416 32.6011 265.5796 33.0491 266.8376 33.0491 267.3406 33.0491 267.8986 32.9081 268.5136 32.6851L268.9886 34.1931C268.3736 34.5291 267.6196 34.7801 266.8086 34.7801 264.1536 34.7801 262.8416 33.1891 262.8416 30.3651L262.8416 22.6221 260.9116 22.6221 260.9116 20.8911 262.8416 20.8911 262.8416 17.4811 264.7416 17.4811 264.7416 20.8911 268.7096 20.8911 268.7096 22.6221 264.7416 22.6221zM277.0414 22.2886C273.9954 22.2886 272.1224 24.8586 272.1224 27.7096 272.1224 30.5606 273.9954 33.1316 277.0414 33.1316 280.0884 33.1316 281.9614 30.5606 281.9614 27.7096 281.9614 24.8586 280.0884 22.2886 277.0414 22.2886M283.9184 27.7096C283.9184 31.6786 281.0954 34.8656 277.0414 34.8656 272.9894 34.8656 270.1664 31.6786 270.1664 27.7096 270.1664 23.7416 272.9894 20.5556 277.0414 20.5556 281.0954 20.5556 283.9184 23.7416 283.9184 27.7096M295.8061 22.6221L295.8061 30.1411C295.8061 32.6011 296.6451 33.0491 297.9031 33.0491 298.4071 33.0491 298.9651 32.9081 299.5811 32.6851L300.0551 34.1931C299.4411 34.5291 298.6851 34.7801 297.8751 34.7801 295.2201 34.7801 293.9071 33.1891 293.9071 30.3651L293.9071 22.6221 291.9781 22.6221 291.9781 20.8911 293.9071 20.8911 293.9071 17.4811 295.8061 17.4811 295.8061 20.8911 299.7771 20.8911 299.7771 22.6221 295.8061 22.6221zM304.391 23.2935C305.481 21.4775 307.158 20.5555 309.254 20.5555 313.14 20.5555 314.397 23.0435 314.397 27.1515L314.397 34.5295 312.495 34.5295 312.495 27.4575C312.495 24.8865 312.023 22.2885 308.973 22.2885 306.934 22.2885 305.286 23.7415 304.391 25.4725L304.391 34.5295 302.49 34.5295 302.49 13.5675 304.391 13.5675 304.391 23.2935zM324.1606 22.1758C321.5326 22.1758 319.8266 24.0198 319.4346 26.5628L328.3506 26.5628C328.2386 24.2728 326.4776 22.1758 324.1606 22.1758zM319.3806 28.1868C319.5486 30.8118 321.2786 33.2438 324.2426 33.2438 326.0586 33.2438 327.5976 32.7398 328.5746 30.8968L329.9176 31.7638C328.8276 33.8028 326.4496 34.8648 324.3836 34.8648 319.9116 34.8648 317.4786 31.6228 317.4786 27.6248 317.4786 23.6018 320.4426 20.5548 324.1606 20.5548 327.6806 20.5548 330.2226 23.5468 330.2226 26.9258 330.2226 27.3738 330.1676 27.9328 330.1396 28.1868L319.3806 28.1868zM342.3354 24.5508L345.2144 24.5508C348.1754 24.5508 350.4124 23.5738 350.4124 20.7508 350.4124 18.3208 348.5114 16.8648 345.7734 16.8648L342.3354 16.8648 342.3354 24.5508zM345.9134 14.9658C349.0154 14.9658 352.6194 16.5018 352.6194 20.6958 352.6194 24.9138 349.0424 26.4528 345.9134 26.4528L342.3354 26.4528 342.3354 34.5298 340.2664 34.5298 340.2664 14.9658 345.9134 14.9658zM360.4535 22.2886C357.4065 22.2886 355.5335 24.8586 355.5335 27.7096 355.5335 30.5606 357.4065 33.1316 360.4535 33.1316 363.4995 33.1316 365.3715 30.5606 365.3715 27.7096 365.3715 24.8586 363.4995 22.2886 360.4535 22.2886M367.3275 27.7096C367.3275 31.6786 364.5045 34.8656 360.4535 34.8656 356.3995 34.8656 353.5765 31.6786 353.5765 27.7096 353.5765 23.7416 356.3995 20.5556 360.4535 20.5556 364.5045 20.5556 367.3275 23.7416 367.3275 27.7096"/>
    <polygon points="379.38 20.891 382.427 32.686 385.558 20.891 387.43 20.891 383.629 34.53 381.227 34.53 378.04 22.931 374.74 34.53 372.197 34.53 368.733 20.891 370.69 20.891 373.54 32.713 376.893 20.891"/>
    <path d="M395.4066 22.1758C392.7786 22.1758 391.0726 24.0198 390.6806 26.5628L399.5976 26.5628C399.4846 24.2728 397.7256 22.1758 395.4066 22.1758zM390.6266 28.1868C390.7946 30.8118 392.5256 33.2438 395.4886 33.2438 397.3046 33.2438 398.8436 32.7398 399.8206 30.8968L401.1636 31.7638C400.0736 33.8028 397.6956 34.8648 395.6296 34.8648 391.1576 34.8648 388.7246 31.6228 388.7246 27.6248 388.7246 23.6018 391.6886 20.5548 395.4066 20.5548 398.9266 20.5548 401.4686 23.5468 401.4686 26.9258 401.4686 27.3738 401.4136 27.9328 401.3856 28.1868L390.6266 28.1868zM406.6498 23.4614C407.4038 21.9534 408.7158 20.5554 410.6188 20.5554 410.9818 20.5554 411.3728 20.5824 411.7628 20.6684L411.5118 22.7624C411.0938 22.5664 410.7578 22.5114 410.2268 22.5114 408.6618 22.5114 407.6278 23.6844 406.6498 25.4184L406.6498 34.5294 404.7488 34.5294 404.7488 20.8904 406.6498 20.8904 406.6498 23.4614zM425.9701 22.2886C422.9241 22.2886 421.0501 24.8586 421.0501 27.7096 421.0501 30.5606 422.9241 33.1316 425.9701 33.1316 429.0171 33.1316 430.8881 30.5606 430.8881 27.7096 430.8881 24.8586 429.0171 22.2886 425.9701 22.2886M432.8441 27.7096C432.8441 31.6786 430.0211 34.8656 425.9701 34.8656 421.9161 34.8656 419.0931 31.6786 419.0931 27.7096 419.0931 23.7416 421.9161 20.5556 425.9701 20.5556 430.0211 20.5556 432.8441 23.7416 432.8441 27.7096M442.8852 15.3018C442.4092 15.1068 441.8512 14.9658 441.1822 14.9658 440.6202 14.9658 439.9512 15.0488 439.4482 15.4418 438.6942 16.0288 438.5812 17.1458 438.5812 18.6538L438.5812 20.8908 442.4092 20.8908 442.4092 22.6218 438.5812 22.6218 438.5812 34.5298 436.6802 34.5298 436.6802 22.6218 435.0862 22.6218 435.0862 20.8908 436.6802 20.8908 436.6802 18.4888C436.6802 17.0908 436.9062 15.7758 437.5472 14.8258 438.1912 13.8758 439.2252 13.2328 440.9022 13.2328 441.7952 13.2328 442.7172 13.5128 443.3622 13.7358L442.8852 15.3018z"/>
    <polygon points="456.754 26.172 456.754 34.529 454.685 34.529 454.685 25.781 448.705 14.966 451.247 14.966 455.887 23.714 455.97 23.714 460.694 14.966 463.069 14.966"/>
    <path d="M468.8617 22.2886C465.8157 22.2886 463.9417 24.8586 463.9417 27.7096 463.9417 30.5606 465.8157 33.1316 468.8617 33.1316 471.9087 33.1316 473.7797 30.5606 473.7797 27.7096 473.7797 24.8586 471.9087 22.2886 468.8617 22.2886M475.7367 27.7096C475.7367 31.6786 472.9137 34.8656 468.8617 34.8656 464.8087 34.8656 461.9857 31.6786 461.9857 27.7096 461.9857 23.7416 464.8087 20.5556 468.8617 20.5556 472.9137 20.5556 475.7367 23.7416 475.7367 27.7096M488.8236 34.5293L488.8236 32.1273C487.7336 33.9433 486.0576 34.8653 483.9616 34.8653 480.0756 34.8653 478.8176 32.3773 478.8176 28.2683L478.8176 20.8903 480.7196 20.8903 480.7196 27.9613C480.7196 30.5333 481.1926 33.1323 484.2396 33.1323 486.2806 33.1323 487.9286 31.6783 488.8236 29.9443L488.8236 20.8903 490.7246 20.8903 490.7246 34.5293 488.8236 34.5293z"/>
    <polygon points="172.611 40.677 173.361 40.677 173.361 7.906 172.611 7.906"/>
  </g>
</svg>
