<?xml version="1.0" encoding="utf-8"?>
<svg class="c-building__floor" xmlns="http://www.w3.org/2000/svg" version="1.1" id="Level_1" x="0px" y="0px" viewBox="0 0 2268 1404"  xml:space="preserve">
            <path class="building-outline" stroke="#000000" stroke-width="3" fill="#E9E9E9" fill-rule="nonzero" d="M578,182H200v10h-37v91h5v184h61v551h47.3v33.7H228v132.1c69.8,0,139.5,0,209.3,0h0c205.9,0,411.8,0,617.7,0 c0-14.3,0-28.5,0-42.8h87v41.2h959V334h-83v-26h84V182H863v20H577L578,182z"/>
            <g class="units">
                    <rect class="unit" x="493" y="949" width="311.3" height="234.8"/>
                <polygon class="unit" points="804.3,949 820.3,949 820.3,925.7 876.3,925.7 876.3,919 981,919 981,1183.8 804.3,1183.8 "/>
                <polygon class="unit" points="981,1183.8 981,867 1120.3,867 1120.3,884.3 1169.7,884.3 1169.7,906.3 1205.7,906.3 1205.7,1002.3 1264.3,1002.3 1264.3,1182.2 1142,1182.2 1142,1141 1055,1141 1055,1183.8 "/>
                <polygon class="unit" points="609,202 609,446.5 737.5,446.5 737.5,504.5 951,504.5 951,433 1070.5,433 1070.5,381.5 1117,381.5 1117,182 863,182 863,202 "/>
                </g>
            <g class="unit-labels" fill="rgb(217, 217, 217)" fill-rule="nonzero" stroke="#000000">
                    <text transform="matrix(1 0 0 1 1052.0814 1061.9335)"><tspan x="0" y="0" class="st1 st2">Front Desk </tspan><tspan x="13.4" y="26.4" class="st1 st2">&amp; Lobby</tspan></text>
                <text transform="matrix(1 0 0 1 424.277 668.6973)" class="st1 st2">Parking Garage</text>
                <text transform="matrix(1 0 0 1 1601.2771 668.6973)" class="st1 st2">Parking Garage</text>
                <text transform="matrix(1 0 0 1 814.6975 342.7499)" class="st1 st2">Receiving</text>
                <text transform="matrix(1 0 0 1 605.2523 1061.9335)"><tspan x="0" y="0" class="st1 st2">Resident </tspan><tspan x="4.9" y="26.4" class="st1 st2">Storage</tspan></text>
                <text transform="matrix(1 0 0 1 863.4369 1075.1337)" class="st1 st2">Offices</text>
                </g>
            </svg>
