<?xml version="1.0" encoding="UTF-8"?>
<svg class="c-building__floor" id="floor-1" viewBox="0 0 589 835" version="1.1" xmlns="http://www.w3.org/2000/svg" xmlns:xlink="http://www.w3.org/1999/xlink">
    <polygon id="building-outline" stroke="#000000" stroke-width="3" fill="#E9E9E9" points="169.794964 571 147 571 147 525 171.389326 525 171.3664 477 36 477 36 464 21 464 21 446 6 446 6 404 21 404 21 386 36 386 36 372 171.307902 372 171.307902 296.556749 169.171201 296.556749 169.10912 253 139 253 139 213 171.410425 213 171.410425 196.078324 175.663706 196.078324 175.595676 172.530761 160.191308 156.584042 136.043713 156.528428 136.043713 160.444393 108.555966 160.444393 108.555966 158.48641 86.2375023 158.48641 86.2375023 123.944615 82.2429256 123.944615 82.2429256 70.5526866 93.9928643 70.5526866 94.020651 34.0059248 178.190379 34.0059248 178.190379 32.198483 198.775528 32.198483 198.775528 34.210161 202.486489 34.210161 202.486489 38.0618819 223.259437 38.0618819 223.259437 34.0059248 227.01639 34.0059248 227.01639 32 241.816158 32 241.816158 34.2005724 245.812651 34.2005724 245.812651 36.0319857 275.444764 36.0319857 275.444764 34.1219463 334.983025 34.1219463 334.983025 37.8442218 388.570143 37.8442218 388.570143 34.1219463 437.044509 34.1219463 437.044509 35.9140465 468.091827 35.9140465 468.091827 34.0586619 489.936959 34.0586619 489.936959 37.8355921 513.00758 37.8355921 513.00758 34.0586619 580.479421 34.0586619 580.479421 66.4228977 582.396703 66.4228977 582.396703 89.1448868 584.373391 89.1448868 584.373391 105.292007 582.396703 105.292007 582.396703 127.718668 580.284915 127.718668 580.284915 160.439598 497.532308 160.439598 497.532308 156.489115 477.11867 156.489115 477.11867 160.444393 427.727343 160.444393 427.727343 158.594761 383.408525 158.594761 383.408525 160.444393 333.899344 160.444393 333.899344 156.631026 310.165675 156.696228 294.336841 172.297759 294.336841 195.778203 303.4595 195.778203 313.681171 212.971433 313.681171 234.893737 303.4595 251.84246 297.821676 252.148335 297.821676 291.954245 299.797406 291.954245 299.797406 325.655125 294.592671 325.655125 294.592671 349.127897 309.909846 365.104341 333.61477 364.808055 333.61477 361.535482 362.588626 361.535482 362.588626 363.202931 408.587102 363.440727 408.587102 434.807353 410.037759 434.807353 410.037759 438.020476 412.553892 438.020476 412.553892 453.743782 410.037759 453.743782 410.037759 456.588705 408.830475 456.588705 408.748073 500.433313 403.306672 500.433313 403.306672 502.277191 381.922416 502.277191 381.922416 500.403588 315.311004 500.403588 305.426607 489.294293 294.034062 499.714171 294.034062 527.233313 298.029597 527.233313 297.922283 664.991065 294.235276 665.568295 294.221862 688.965318 310.156094 704.827658 333.502665 704.759579 333.502665 699.118635 344.287735 699.118635 344.287735 697.035043 362.152663 697.035043 362.152663 699.118635 363.799743 699.118635 363.799743 701.233869 411.444341 701.000867 411.444341 699.102334 437.334832 699.102334 437.334832 700.951007 470.839836 700.951007 470.839836 698.985354 472.56836 698.985354 472.56836 697.108875 490.62971 697.108875 490.62971 698.985354 513.557565 698.985354 513.557565 701.068946 534.242363 701.068946 534.242363 699.073569 578.348469 699.073569 578.348469 702.194642 580.321325 702.194642 580.321325 718.269848 578.448118 718.269848 578.448118 741.362914 573.02109 741.362914 573.02109 755.92984 569.269886 755.92984 569.269886 772.337769 565.238899 772.337769 565.238899 830.842312 511.756221 830.958333 511.756221 827.088394 472.401639 827.088394 472.401639 828.720366 447.749093 828.720366 447.749093 830.892172 418.951539 830.892172 418.951539 828.915972 417.133906 828.915972 417.133906 827.088394 388.318146 827.088394 388.318146 830.871078 370.343988 830.871078 370.343988 827.088394 320.326023 827.088394 320.326023 829.082813 318.768052 829.082813 318.768052 830.842312 289.171391 830.842312 289.171391 828.887206 245.965957 828.887206 245.965957 825.897496 223.822837 825.897496 223.804632 828.596673 155.804843 828.596673 155.804843 826.808409 132.878905 826.808409 132.878905 828.734748 100.238163 828.734748 100.238163 826.779643 76.8302693 826.779643 76.8302693 825.682713 56.3323128 825.682713 56.3323128 826.917718 54.4111983 826.917718 54.4111983 828.734748 39.24158 828.734748 39.24158 826.917718 15.5270742 826.917718 15.5270742 783.831564 13.4152855 783.831564 13.4152855 743.598964 15.5395303 743.598964 15.5395303 700.801426 39.0068303 700.801426 39.0068303 698.672767 55.5935701 698.672767 55.5935701 700.801426 80.1704215 700.801426 80.1704215 699.243286 135.750516 699.243286 135.750516 704.424939 158.940907 704.662735 174.980536 688.316174 174.980536 665.515558 171.404676 665.515558 171.404676 615.569755 169.794964 615.569755"></polygon>
    <polygon id="phase3-overlay" stroke="#000000" stroke-width="3" fill="#C5C5C5" fill-rule="nonzero" points="171.387893 522 294.034062 522 294.034062 527.233313 298.029597 527.233313 297.922283 664.991065 294.235276 665.568295 294.221862 688.965318 310.156094 704.827658 333.502665 704.759579 333.502665 699.118635 344.287735 699.118635 344.287735 697.035043 362.152663 697.035043 362.152663 699.118635 363.799743 699.118635 363.799743 701.233869 411.444341 701.000867 411.444341 699.102334 437.334832 699.102334 437.334832 700.951007 470.839836 700.951007 470.839836 698.985354 472.56836 698.985354 472.56836 697.108875 490.62971 697.108875 490.62971 698.985354 513.557565 698.985354 513.557565 701.068946 534.242363 701.068946 534.242363 699.073569 578.348469 699.073569 578.348469 702.194642 580.321325 702.194642 580.321325 718.269848 578.448118 718.269848 578.448118 741.362914 573.02109 741.362914 573.02109 755.92984 569.269886 755.92984 569.269886 772.337769 565.238899 772.337769 565.238899 830.842312 511.756221 830.958333 511.756221 827.088394 472.401639 827.088394 472.401639 828.720366 447.749093 828.720366 447.749093 830.892172 418.951539 830.892172 418.951539 828.915972 417.133906 828.915972 417.133906 827.088394 388.318146 827.088394 388.318146 830.871078 370.343988 830.871078 370.343988 827.088394 320.326023 827.088394 320.326023 829.082813 318.768052 829.082813 318.768052 830.842312 289.171391 830.842312 289.171391 828.887206 245.965957 828.887206 245.965957 825.897496 223.822837 825.897496 223.804632 828.596673 155.804843 828.596673 155.804843 826.808409 132.878905 826.808409 132.878905 828.734748 100.238163 828.734748 100.238163 826.779643 76.8302693 826.779643 76.8302693 825.682713 56.3323128 825.682713 56.3323128 826.917718 54.4111983 826.917718 54.4111983 828.734748 39.24158 828.734748 39.24158 826.917718 15.5270742 826.917718 15.5270742 783.831564 13.4152855 783.831564 13.4152855 743.598964 15.5395303 743.598964 15.5395303 700.801426 39.0068303 700.801426 39.0068303 698.672767 55.5935701 698.672767 55.5935701 700.801426 80.1704215 700.801426 80.1704215 699.243286 135.750516 699.243286 135.750516 704.424939 158.940907 704.662735 174.980536 688.316174 174.980536 665.515558 171.404676 665.515558 171.404676 615.569755 169.794964 615.569755 169.794964 571 147 571 147 525 171.389326 525"></polygon>
    <g id="units" transform="translate(82.000000, 32.000000)" fill="#FFFFFF" fill-rule="nonzero" stroke="#211E1E">
        <polygon id="unit-150" points="212.578892 163.857893 159.948156 163.857893 159.948156 155.688227 159.402904 155.688227 159.402904 143.482655 161.46413 143.482655 161.46413 133.142022 159.636721 133.142022 159.636721 109.303598 180.603538 109.303598 180.603538 95.233085 204.470062 95.233085 204.470062 115.976706 220.444323 132.575057 212.578892 140.383055"></polygon>
        <polygon id="unit-154" points="228.409414 124.773583 220.443365 132.574865 204.470062 115.977474 204.470062 95.2328931 180.603538 95.2328931 180.603538 71.6458135 222.791112 71.6458135 222.791112 73.4934857 233.171986 73.4934857 233.171986 71.7244787 252.146572 71.7244787 252.146572 124.708348"></polygon>
        <polygon id="unit-156" points="252.146093 71.7240949 290.078975 71.7240949 290.078975 73.4940613 300.06217 73.4940613 300.06217 71.6454298 323.358527 71.6454298 323.358527 126.672675 301.660554 126.672675 301.660554 128.523225 252.146093 128.523225"></polygon>
        <polygon id="unit-158" points="323.359006 71.6459094 348.702215 71.6459094 348.702215 73.607742 358.228318 73.607742 358.228318 71.6459094 395.379256 71.6459094 395.379256 128.522746 345.982662 128.522746 345.982662 126.672196 323.359006 126.672196"></polygon>
        <polygon id="unit-160" points="432.357455 112.572519 432.357455 71.672387 447.22208 71.672387 447.22208 75.2238316 450.624709 75.2238316 450.624709 76.9381567 460.458482 76.9381567 460.458482 71.681021 502.646087 71.681021 502.646087 73.3435422 500.662021 73.3435422 500.662021 95.7813428 498.54235 95.7813428 498.54235 128.518525 415.480874 128.518525 415.480874 112.572519"></polygon>
        <polygon id="unit-159" points="428.039961 59.0059516 428.039961 5.82733757 431.272186 5.82733757 431.272186 2.07539271 498.752181 2.07539271 498.752181 34.4557033 500.669667 34.4557033 500.669667 57.1870594 502.645608 57.1870594 502.645608 59.0059516 461.121152 59.0059516 461.121152 57.0681023 450.976969 57.0681023 450.976969 59.0059516"></polygon>
        <polygon id="unit-157" points="428.039961 59.0059516 389.38359 59.0059516 389.38359 57.1515641 379.458849 57.1515641 379.458849 59.0059516 355.301971 59.0500808 355.301971 3.93169885 386.352601 3.93169885 386.352601 2.07539271 408.200063 2.07539271 408.200063 5.85323952 428.039961 5.85323952"></polygon>
        <polygon id="unit-155" points="306.821477 2.13842078 355.301971 2.13842078 355.301971 59.049793 332.288302 59.049793 332.288302 57.2097955 322.561922 57.2097955 322.561922 59.049793 283.896926 59.049793 283.896926 5.8615857 306.821477 5.8615857"></polygon>
        <polygon id="unit-153" points="253.228836 5.86139384 283.966113 5.86139384 283.966113 59.0496012 261.599272 59.0054719 261.599272 57.1050366 252.147914 57.1050366 252.147914 58.968058 232.857101 58.968058 232.857101 35.7541583 224.040113 35.7541583 224.040113 27.5163801 215.528812 27.5163801 215.528812 2.13822892 253.228836 2.13822892"></polygon>
        <polygon id="unit-151" points="232.857292 58.9679621 198.621393 58.9679621 198.621393 57.1049406 188.116903 57.1049406 188.116903 58.9372635 164.049143 58.9372635 164.049143 55.4539314 164.049143 4.04816168 193.685375 4.04816168 193.685375 2.13813298 215.529004 2.13813298 215.529004 27.5162842 224.040305 27.5162842 224.040305 35.7540624 232.857292 35.7540624"></polygon>
        <polygon id="unit-161" points="120.718935 2.22600773 117.007578 2.22600773 117.007578 0.213330589 96.420234 0.213330589 96.420234 2.02167016 83.772107 2.02167016 83.772107 58.9464731 89.663514 58.9464731 89.663514 57.1247028 99.998392 57.1247028 99.998392 42.7404888 120.503325 42.7404888"></polygon>
        <polygon id="unit-164" points="0.4633143 60.7307334 0.4633143 92.004935 4.4573588 92.004935 4.4573588 126.563887 26.7782031 126.563887 26.7782031 128.522842 54.268882 128.522842 54.268882 71.3725959 42.090304 71.3725959 42.090304 60.7307334"></polygon>
        <polygon id="unit-162" points="54.269265 124.604933 78.418477 124.661533 85.970556 132.44171 101.97644 116.128281 101.97644 94.880051 126.716901 94.880051 126.716901 71.3725959 83.454155 71.3725959 83.454155 73.3574525 73.122152 73.3574525 73.122152 71.3725959 54.269265 71.3725959"></polygon>
        <polygon id="unit-149" points="147.941491 108.797071 147.941491 133.118039 144.659437 133.118039 144.659437 143.472102 146.749411 143.472102 146.749411 155.601887 145.63495 155.601887 145.591828 164.207089 93.756451 164.207089 93.824488 140.616173 85.970556 132.44171 101.97644 116.128281 101.97644 94.880051 126.716901 94.880051 126.716901 108.797071"></polygon>
        <polygon id="unit-163" points="12.2418167 2.02128643 83.870137 2.02128643 83.870137 58.9470487 60.769266 58.9470487 60.769266 57.0907425 50.373059 57.0907425 50.373059 58.7417517 42.232606 58.7417517 42.232606 60.7304456 0.4628352 60.7304456 0.4628352 38.588119 12.2130688 38.588119"></polygon>
    </g>
    <g id="unused-spaces" transform="translate(180.717668, 38.250000)" fill="#A5A5A5" fill-rule="nonzero" stroke="#000000">
        <polygon id="unused-4" points="316.792206 91.2167731 334.103603 91.2167731 334.103603 106.797273 316.792206 106.797273 316.792206 118.485766 295.830181 118.485766 295.830181 65.2160158 306.135182 65.2160158 306.135182 67.354956 316.792206 67.354956"></polygon>
        <polygon id="unused-3" points="61.129347 103.223188 61.129347 100.006551 63.07654 100.006551 63.07654 90.641558 82.091373 90.641558 82.091373 103.223188"></polygon>
        <polygon id="unused-3" points="82.095973 65.5652125 79.055401 65.5652125 79.055401 67.8676077 68.481916 67.8676077 59.84604 76.4603384 59.84604 83.419328 59.84604 90.6411743 82.091182 90.6411743"></polygon>
        <polygon id="unused-2" points="27.167634 65.2916112 30.525391 65.2916112 30.525391 68.3518781 40.643701 68.3518781 48.921186 76.6395415 48.921186 90.3493457 46.253378 90.3493457 46.253378 100.006934 48.392224 100.006934 48.392224 102.716086 27.167634 102.716086"></polygon>
        <polygon id="unused-1" points="21.169667 0 41.943873 0 41.943873 53.2697505 32.908402 53.2697505 32.908402 50.9184294 23.025825 50.9184294 23.025825 52.3267278 0.449124 52.3267278 0.449124 36.5821819 20.954058 36.5821819"></polygon>
    </g>
    <g id="common-spaces" transform="translate(239.823315, 195.000000)" fill="#CBE3FF" fill-rule="nonzero">
        <polygon id="bar" stroke="#000000" points="2.2394466 0.337023 63.7153 0.337023 73.891956 17.524733 73.891956 39.41802 63.7153 56.343352 58.149047 56.343352 57.617542 90.277041 2.2394466 90.277041"></polygon>
    </g>
    <g id="unit-labels" transform="translate(30.000000, -3.000000)">
        <text id="Bar" font-family="Roboto-Regular, Roboto" font-size="12" font-weight="normal" fill="#000000">
            <tspan x="235" y="243">Bar</tspan>
        </text>
        <text id="Auditorium" font-family="Roboto-Regular, Roboto" font-size="12" font-weight="normal" fill="#000000">
            <tspan x="293.594727" y="410">Auditorium</tspan>
        </text>
        <text id="Phase-III" font-family="Roboto-Regular, Roboto" font-size="18" font-weight="normal" fill="#000000">
            <tspan x="168.489746" y="586">Phase III</tspan>
        </text>
        <text id="Health-Center" font-family="Roboto-Regular, Roboto" font-size="12" font-weight="normal" line-spacing="13" fill="#000000">
            <tspan x="140.123047" y="451">Health</tspan>
            <tspan x="140" y="464">Center</tspan>
        </text>
        <text id="Move-for-Life" font-family="Roboto-Regular, Roboto" font-size="12" font-weight="normal" line-spacing="13" fill="#000000">
            <tspan x="156.265625" y="400">Move </tspan>
            <tspan x="152" y="413">for Life</tspan>
        </text>
        <text id="Sports-Simulator-Lou" font-family="Roboto-Regular, Roboto" font-size="12" font-weight="normal" line-spacing="13" fill="#000000">
            <tspan x="30" y="399">Sports Simulator</tspan>
            <tspan x="54.9052734" y="412">Lounge</tspan>
        </text>
        <text id="Fitness-Center" font-family="Roboto-Regular, Roboto" font-size="12" font-weight="normal" line-spacing="13" fill="#000000">
            <tspan x="0.5" y="429">Fitness</tspan>
            <tspan x="2.34570312" y="442">Center</tspan>
        </text>
        <text id="DIY-Art-Studio" font-family="Roboto-Regular, Roboto" font-size="12" font-weight="normal" line-spacing="13" fill="#000000">
            <tspan x="228.418945" y="314">DIY</tspan>
            <tspan x="229.538086" y="327">Art</tspan>
            <tspan x="220.5" y="340">Studio</tspan>
        </text>
        <text id="Grand-Staircase" font-family="Roboto-Regular, Roboto" font-size="12" font-weight="normal" line-spacing="13" fill="#000000">
            <tspan x="150.932617" y="234">Grand</tspan>
            <tspan x="142" y="247">Staircase</tspan>
        </text>
        <text id="North-Lobby-Entrance" font-family="Roboto-Regular, Roboto" font-size="12" font-weight="normal" line-spacing="13" fill="#000000">
            <tspan x="68.6933594" y="229">North</tspan>
            <tspan x="66.53125" y="242">Lobby</tspan>
            <tspan x="52" y="255">Entrance</tspan>
        </text>
        <text id="South-Lobby-Entrance" font-family="Roboto-Regular, Roboto" font-size="12" font-weight="normal" line-spacing="13" fill="#000000">
            <tspan x="75.8671875" y="543">South</tspan>
            <tspan x="74.53125" y="556">Lobby</tspan>
            <tspan x="60" y="569">Entrance</tspan>
        </text>
        <text id="Board-Room" font-family="Roboto-Regular, Roboto" font-size="12" font-weight="normal" fill="#000000">
            <tspan x="171.382812" y="13">Board Room</tspan>
        </text>
        <path d="M204.5,18.5 L204.5,50.5156212" id="Line" stroke="#000000" stroke-width="2" stroke-linecap="square"></path>
        <text id="163" font-family="Roboto-Regular, Roboto" font-size="12" font-weight="normal" fill="#000000">
            <tspan x="87.8925781" y="70">163</tspan>
        </text>
        <text id="161" font-family="Roboto-Regular, Roboto" font-size="12" font-weight="normal" fill="#000000">
            <tspan x="143.892578" y="70">161</tspan>
        </text>
        <text id="151" font-family="Roboto-Regular, Roboto" font-size="12" font-weight="normal" fill="#000000">
            <tspan x="229.892578" y="70">151</tspan>
        </text>
        <text id="153" font-family="Roboto-Regular, Roboto" font-size="12" font-weight="normal" fill="#000000">
            <tspan x="295.892578" y="70">153</tspan>
        </text>
        <text id="155" font-family="Roboto-Regular, Roboto" font-size="12" font-weight="normal" fill="#000000">
            <tspan x="360.892578" y="70">155</tspan>
        </text>
        <text id="157" font-family="Roboto-Regular, Roboto" font-size="12" font-weight="normal" fill="#000000">
            <tspan x="431.892578" y="70">157</tspan>
        </text>
        <text id="159" font-family="Roboto-Regular, Roboto" font-size="12" font-weight="normal" fill="#000000">
            <tspan x="504.892578" y="70">159</tspan>
        </text>
        <text id="164" font-family="Roboto-Regular, Roboto" font-size="12" font-weight="normal" fill="#000000">
            <tspan x="69.8925781" y="139">164</tspan>
        </text>
        <text id="162" font-family="Roboto-Regular, Roboto" font-size="12" font-weight="normal" fill="#000000">
            <tspan x="119.892578" y="139">162</tspan>
        </text>
        <text id="149" font-family="Roboto-Regular, Roboto" font-size="12" font-weight="normal" fill="#000000">
            <tspan x="158.892578" y="172">149</tspan>
        </text>
        <text id="150" font-family="Roboto-Regular, Roboto" font-size="12" font-weight="normal" fill="#000000">
            <tspan x="225.892578" y="172">150</tspan>
        </text>
        <text id="154" font-family="Roboto-Regular, Roboto" font-size="12" font-weight="normal" fill="#000000">
            <tspan x="267.892578" y="139">154</tspan>
        </text>
        <text id="156" font-family="Roboto-Regular, Roboto" font-size="12" font-weight="normal" fill="#000000">
            <tspan x="327.892578" y="139">156</tspan>
        </text>
        <text id="158" font-family="Roboto-Regular, Roboto" font-size="12" font-weight="normal" fill="#000000">
            <tspan x="399.892578" y="139">158</tspan>
        </text>
        <text id="160" font-family="Roboto-Regular, Roboto" font-size="12" font-weight="normal" fill="#000000">
            <tspan x="507.892578" y="139">160</tspan>
        </text>
    </g>
</svg>