<?xml version="1.0" encoding="UTF-8"?>
<svg class="c-building__floor" viewBox="0 0 578 805" version="1.1" xmlns="http://www.w3.org/2000/svg" xmlns:xlink="http://www.w3.org/1999/xlink">
    <polygon class="building-bg-fill" stroke="#000000" stroke-width="3" fill="#E9E9E9" fill-rule="nonzero" points="214.01639 0 214.01639 2.00592485 210.259437 2.00592485 210.259437 6.06188188 189.486489 6.06188188 189.486489 2.21016098 185.775528 2.21016098 185.775528 0.198483004 165.190379 0.198483004 165.190379 2.00592485 81.020651 2.00592485 80.9928643 38.5526866 69.2429256 38.5526866 69.2429256 91.9446146 73.2375023 91.9446146 73.2375023 126.48641 95.5559662 126.48641 95.5559662 128.444393 123.043713 128.444393 123.043713 124.528428 147.191308 124.584042 162.595676 140.530761 162.663706 164.078324 158.410425 164.078324 158.410425 206.070424 156.087841 206.070424 156.171201 264.556749 158.307902 264.556749 158.307902 344.358423 154.467589 344.358423 154.458008 440.883488 158.364434 440.883488 158.404676 525.139044 156.794964 525.139044 156.794964 583.569755 158.404676 583.569755 158.404676 633.515558 161.980536 633.515558 161.980536 656.316174 145.940907 672.662735 122.750516 672.424939 122.750516 667.243286 67.1704215 667.243286 67.1704215 668.801426 42.5935701 668.801426 42.5935701 666.672767 26.0068303 666.672767 26.0068303 668.801426 2.53953032 668.801426 2.53953032 711.598964 0.415285499 711.598964 0.415285499 722.802227 0.415285499 741.886319 0.415285499 751.831564 2.52707421 751.831564 2.52707421 794.917718 26.24158 794.917718 26.24158 796.734748 41.4111983 796.734748 41.4111983 794.917718 43.3323128 794.917718 43.3323128 793.682713 63.8302693 793.682713 63.8302693 794.779643 87.2381632 794.779643 87.2381632 796.734748 119.878905 796.734748 119.878905 794.808409 142.804843 794.808409 142.804843 796.596673 210.804632 796.596673 210.822837 793.897496 232.965957 793.897496 232.965957 796.887206 276.171391 796.887206 276.171391 798.842312 305.768052 798.842312 305.768052 797.082813 307.326023 797.082813 307.326023 795.088394 357.343988 795.088394 357.343988 798.871078 375.318146 798.871078 375.318146 795.088394 404.133906 795.088394 404.133906 796.915972 405.951539 796.915972 405.951539 798.892172 434.749093 798.892172 434.749093 796.720366 459.401639 796.720366 459.401639 795.088394 498.756221 795.088394 498.756221 798.958333 552.238899 798.842312 552.238899 740.337769 552.311719 740.337769 556.269886 740.337769 556.269886 723.92984 560.02109 723.92984 560.02109 709.362914 565.448118 709.362914 565.448118 686.269848 567.321325 686.269848 567.321325 670.194642 565.348469 670.194642 565.348469 667.073569 521.242363 667.073569 521.242363 669.068946 500.557565 669.068946 500.557565 666.985354 477.62971 666.985354 477.62971 665.108875 459.56836 665.108875 459.56836 666.985354 457.839836 666.985354 457.839836 668.951007 424.334832 668.951007 424.334832 667.102334 398.444341 667.102334 398.444341 669.000867 350.799743 669.233869 350.799743 667.118635 349.152663 667.118635 349.152663 665.035043 331.287735 665.035043 331.287735 667.118635 320.502665 667.118635 320.502665 672.759579 297.156094 672.827658 281.221862 656.965318 281.235276 633.568295 284.922283 632.991065 285.029597 495.233313 281.034062 495.233313 281.034062 467.714171 292.426607 457.294293 302.311004 468.403588 368.922416 468.403588 368.922416 470.277191 390.306672 470.277191 390.306672 468.433313 395.748073 468.433313 395.830475 424.588705 397.037759 424.588705 397.037759 421.743782 399.553892 421.743782 399.553892 406.020476 397.037759 406.020476 397.037759 402.807353 395.587102 402.807353 395.587102 331.440727 349.588626 331.202931 349.588626 329.535482 320.61477 329.535482 320.61477 332.808055 296.909846 333.104341 281.592671 317.127897 281.592671 293.655125 286.797406 293.655125 286.797406 259.954245 284.821676 259.954245 284.821676 220.148335 290.4595 219.84246 300.681171 202.893737 300.681171 180.971433 290.4595 163.778203 281.336841 163.778203 281.336841 140.297759 297.165675 124.696228 320.899344 124.631026 320.899344 128.444393 370.408525 128.444393 370.408525 126.594761 414.727343 126.594761 414.727343 128.444393 464.11867 128.444393 464.11867 124.489115 484.532308 124.489115 484.532308 128.439598 567.284915 128.439598 567.284915 95.7186683 569.396703 95.7186683 569.396703 73.2920066 571.373391 73.2920066 571.373391 57.1448868 569.396703 57.1448868 569.396703 34.4228977 567.479421 34.4228977 567.479421 2.05866188 500.00758 2.05866188 500.00758 5.83559208 476.936959 5.83559208 476.936959 2.05866188 455.091827 2.05866188 455.091827 3.91404648 424.044509 3.91404648 424.044509 2.12194632 375.570143 2.12194632 375.570143 5.84422178 321.983025 5.84422178 321.983025 2.12194632 284.287022 2.12194632 262.444764 2.12194632 262.444764 4.03198566 232.812651 4.03198566 232.812651 2.20057243 228.816158 2.20057243 228.816158 0"></polygon>
    <polygon class="phase3-overlay" stroke="#000000" stroke-width="3" fill="#C5C5C5" fill-rule="nonzero" points="158.387893 438.460938 334.552734 438.460938 334.552734 466.111328 303.326172 466.111328 293.262255 454.066129 281.034062 463.861328 281.034062 495.233313 285.029597 495.233313 284.922283 632.991065 281.235276 633.568295 281.221862 656.965318 297.156094 672.827658 320.502665 672.759579 320.502665 667.118635 331.287735 667.118635 331.287735 665.035043 349.152663 665.035043 349.152663 667.118635 350.799743 669.233869 398.444341 669.000867 398.444341 667.102334 424.334832 667.102334 424.334832 668.951007 457.839836 668.951007 457.839836 666.985354 459.56836 666.985354 459.56836 665.108875 477.62971 665.108875 477.62971 666.985354 500.557565 666.985354 500.557565 669.068946 521.242363 669.068946 521.242363 667.073569 565.348469 667.073569 565.348469 670.194642 567.321325 670.194642 567.321325 686.269848 565.448118 686.269848 565.448118 709.362914 560.02109 709.362914 560.02109 723.92984 556.269886 723.92984 556.269886 740.337769 552.238899 740.337769 552.238899 798.842312 498.756221 798.958333 498.756221 795.088394 459.401639 795.088394 459.401639 796.720366 434.749093 796.720366 434.749093 798.892172 405.951539 798.892172 405.951539 796.915972 404.133906 796.915972 404.133906 795.088394 375.318146 795.088394 375.318146 798.871078 357.343988 798.871078 357.343988 795.088394 307.326023 795.088394 307.326023 797.082813 305.768052 798.842312 276.171391 798.842312 276.171391 796.887206 232.965957 796.887206 232.965957 793.897496 210.822837 793.897496 210.804632 796.596673 142.804843 796.596673 142.804843 794.808409 119.878905 794.808409 119.878905 796.734748 87.2381632 796.734748 87.2381632 794.779643 63.8302693 794.779643 63.8302693 793.682713 43.3323128 793.682713 43.3323128 794.917718 41.4111983 794.917718 41.4111983 796.734748 26.24158 796.734748 26.24158 794.917718 2.52707421 794.917718 2.52707421 751.831564 0.415285499 751.831564 0.415285499 711.598964 2.53953032 711.598964 2.53953032 668.801426 26.0068303 668.801426 26.0068303 666.672767 42.5935701 666.672767 42.5935701 668.801426 67.1704215 668.801426 67.1704215 667.243286 122.750516 667.243286 122.750516 672.424939 145.940907 672.662735 161.980536 656.316174 161.980536 633.515558 158.404676 633.515558 158.404676 583.569755 158.404676 539 158.404676 493"></polygon>
    <g class="units" transform="translate(69.000000, 0.000000)">
        <polygon id="unit-350" stroke="#000000" fill="#ffffff" fill-rule="nonzero" points="212.578892 163.857893 159.948156 163.857893 159.948156 155.688227 159.402904 155.688227 159.402904 143.482655 161.46413 143.482655 161.46413 133.142022 159.636721 133.142022 159.636721 109.303598 180.603538 109.303598 180.603538 95.233085 204.470062 95.233085 204.470062 115.976706 220.444323 132.575057 212.578892 140.383055"></polygon>
        <polygon id="unit-354" stroke="#000000" fill="#ffffff" fill-rule="nonzero" points="228.409414 124.773583 220.443365 132.574865 204.470062 115.977474 204.470062 95.2328931 180.603538 95.2328931 180.603538 71.6458135 222.791112 71.6458135 222.791112 73.4934857 233.171986 73.4934857 233.171986 71.7244787 252.146572 71.7244787 252.146572 124.708348"></polygon>
        <polygon id="unit-356" stroke="#000000" fill="#FFFFFF" fill-rule="nonzero" points="252.146093 71.7240949 290.078975 71.7240949 290.078975 73.4940613 300.06217 73.4940613 300.06217 71.6454298 323.358527 71.6454298 323.358527 126.672675 301.660554 126.672675 301.660554 128.523225 252.146093 128.523225"></polygon>
        <polygon id="unit-358" stroke="#000000" fill="#FFFFFF" fill-rule="nonzero" points="323.359006 71.6459094 348.702215 71.6459094 348.702215 73.607742 358.228318 73.607742 358.228318 71.6459094 395.379256 71.6459094 395.379256 128.522746 345.982662 128.522746 345.982662 126.672196 323.359006 126.672196"></polygon>
        <polygon id="unit-360" stroke="#000000" fill="#FFFFFF" fill-rule="nonzero" points="432.357455 112.572519 432.357455 71.672387 447.22208 71.672387 447.22208 75.2238316 450.624709 75.2238316 450.624709 76.9381567 460.458482 76.9381567 460.458482 71.681021 502.646087 71.681021 502.646087 73.3435422 500.662021 73.3435422 500.662021 95.7813428 498.54235 95.7813428 498.54235 128.518525 415.480874 128.518525 415.480874 112.572519"></polygon>
        <polygon id="unit-335" stroke="#000000" fill="#FFFFFF" fill-rule="nonzero" points="85.242259 399.947266 116.540418 399.947266 116.540418 392.359375 127.574219 392.359375 127.574219 383.731389 144.383631 383.731389 144.383631 460.255859 89.2148438 460.255859 89.2148438 441.286999 85.1763293 441.088418"></polygon>
        <polygon id="unit-341" stroke="#000000" fill="#FFFFFF" fill-rule="nonzero" points="90.068521 339.322185 146.838577 339.322185 146.838577 363.296469 145.012732 363.296469 145.012732 376.002136 146.726012 376.002136 146.726012 383.731389 127.574219 383.731389 127.574219 392.359375 116.540418 392.359375 116.540418 399.947266 85.242259 399.947266 85.242259 345.491988 90.068521 345.491988"></polygon>
        <polygon id="unit-338" stroke="#000000" fill="#FFFFFF" fill-rule="nonzero" points="325.880009 403.624529 327.325985 403.624529 327.325985 406.852721 329.833043 406.852721 329.833043 422.654476 327.325985 422.654476 327.325985 425.513594 326.011809 425.513594 326.011809 469.577924 320.616619 469.577924 320.616619 471.430038 299.301371 471.430038 299.301371 469.547087 265.640625 469.547087 265.640625 398.521484 292.457031 398.521484 292.457031 378.561018 326.011809 378.561018"></polygon>
        <polygon id="unit-339" stroke="#000000" fill="#FFFFFF" fill-rule="nonzero" points="251.149615 333.573741 251.149615 329.986113 280.029017 329.986113 280.029017 331.662845 325.880009 331.662845 325.880009 378.561018 292.457031 378.561018 251.149615 378.561018"></polygon>
        <polygon id="unit-344" stroke="#000000" fill="#FFFFFF" fill-rule="nonzero" points="160.942316 286 217.441381 286 217.441381 293.926734 212.251532 293.926734 212.251532 317.516621 220.175822 325.850092 182.980247 356.182759 160.942316 333.573741"></polygon>
        <polygon id="unit-340" stroke="#000000" fill="#FFFFFF" fill-rule="nonzero" points="220.175822 325.850092 227.520233 333.573741 251.149615 333.573741 251.149615 378.561018 204.943359 378.715019 182.980247 356.182759"></polygon>
        <polygon id="unit-348" stroke="#000000" fill="#FFFFFF" stroke-width="1" points="217 219.343352 217 232 191 232 191 225 184 225 184 215.518754 160.062762 215.518754 160.062762 163.337023 221.538615 163.337023 231.715271 180.524733 231.715271 202.41802 221.538615 219.343352 217 219.343352"></polygon>
        <polygon id="unit-359" stroke="#000000" fill="#FFFFFF" fill-rule="nonzero" points="428.039961 59.0059516 428.039961 5.82733757 431.272186 5.82733757 431.272186 2.07539271 498.752181 2.07539271 498.752181 34.4557033 500.669667 34.4557033 500.669667 57.1870594 502.645608 57.1870594 502.645608 59.0059516 461.121152 59.0059516 461.121152 57.0681023 450.976969 57.0681023 450.976969 59.0059516"></polygon>
        <polygon id="unit-357" stroke="#000000" fill="#FFFFFF" fill-rule="nonzero" points="428.039961 59.0059516 389.38359 59.0059516 389.38359 57.1515641 379.458849 57.1515641 379.458849 59.0059516 355.301971 59.0500808 355.301971 3.93169885 386.352601 3.93169885 386.352601 2.07539271 408.200063 2.07539271 408.200063 5.85323952 428.039961 5.85323952"></polygon>
        <polygon id="unit-355" stroke="#000000" fill="#FFFFFF" fill-rule="nonzero" points="306.821477 2.13842078 355.301971 2.13842078 355.301971 59.049793 332.288302 59.049793 332.288302 57.2097955 322.561922 57.2097955 322.561922 59.049793 283.896926 59.049793 283.896926 5.8615857 306.821477 5.8615857"></polygon>
        <polygon id="unit-353" stroke="#000000" fill="#FFFFFF" fill-rule="nonzero" points="253.228836 5.86139384 283.966113 5.86139384 283.966113 59.0496012 261.599272 59.0054719 261.599272 57.1050366 252.147914 57.1050366 252.147914 58.968058 232.857101 58.968058 232.857101 35.7541583 224.040113 35.7541583 224.040113 27.5163801 215.528812 27.5163801 215.528812 2.13822892 253.228836 2.13822892"></polygon>
        <polygon id="unit-351" stroke="#000000" fill="#FFFFFF" fill-rule="nonzero" points="232.857292 58.9679621 198.621393 58.9679621 198.621393 57.1049406 188.116903 57.1049406 188.116903 58.9372635 164.049143 58.9372635 164.049143 55.4539314 164.049143 4.04816168 193.685375 4.04816168 193.685375 2.13813298 215.529004 2.13813298 215.529004 27.5162842 224.040305 27.5162842 224.040305 35.7540624 232.857292 35.7540624"></polygon>
        <polygon id="unit-361" stroke="#000000" fill="#FFFFFF" fill-rule="nonzero" points="120.718935 2.22600773 117.007578 2.22600773 117.007578 0.213330589 96.420234 0.213330589 96.420234 2.02167016 83.772107 2.02167016 83.772107 58.9464731 89.663514 58.9464731 89.663514 57.1247028 99.998392 57.1247028 99.998392 42.7404888 120.503325 42.7404888"></polygon>
        <polygon id="unit-363" stroke="#000000" fill="#FFFFFF" fill-rule="nonzero" points="12.2418167 2.02128643 83.870137 2.02128643 83.870137 58.9470487 60.769266 58.9470487 60.769266 57.0907425 50.373059 57.0907425 50.373059 58.7417517 42.232606 58.7417517 42.232606 60.7304456 0.4628352 60.7304456 0.4628352 38.588119 12.2130688 38.588119"></polygon>
        <polygon id="unit-364" stroke="#000000" fill="#FFFFFF" fill-rule="nonzero" points="0.4633143 60.7307334 0.4633143 92.004935 4.4573588 92.004935 4.4573588 126.563887 26.7782031 126.563887 26.7782031 128.522842 54.268882 128.522842 54.268882 71.3725959 42.090304 71.3725959 42.090304 60.7307334"></polygon>
        <polygon id="unit-362" stroke="#000000" fill="#FFFFFF" fill-rule="nonzero" points="54.269265 124.604933 78.418477 124.661533 85.970556 132.44171 101.97644 116.128281 101.97644 94.880051 126.716901 94.880051 126.716901 71.3725959 83.454155 71.3725959 83.454155 73.3574525 73.122152 73.3574525 73.122152 71.3725959 54.269265 71.3725959"></polygon>
        <polygon id="unit-349" stroke="#000000" fill="#FFFFFF" fill-rule="nonzero" points="147.941491 108.797071 147.941491 133.118039 144.659437 133.118039 144.659437 143.472102 146.749411 143.472102 146.749411 155.601887 145.63495 155.601887 145.591828 164.207089 93.756451 164.207089 93.824488 140.616173 85.970556 132.44171 101.97644 116.128281 101.97644 94.880051 126.716901 94.880051 126.716901 108.797071"></polygon>
        <polygon id="unit-343" stroke="#000000" fill="#FFFFFF" fill-rule="nonzero" points="89.477994 304.583358 146.607779 304.583358 146.607779 320.291366 144.65867 320.291366 144.65867 327.351771 146.563699 327.351771 146.563699 339.322185 89.536448 339.322185"></polygon>
        <polygon id="unit-345" stroke="#000000" fill="#FFFFFF" fill-rule="nonzero" points="87.399423 252.275391 111.634766 252.275391 111.634766 244.232422 120.814453 244.232422 120.814453 236.55166 143.980469 236.55166 143.980469 235.982647 146.919119 235.983899 146.919119 259.722798 144.69978 259.722798 144.69978 274.66322 146.607684 274.66322 146.607684 304.583358 89.478856 304.583358 89.478856 273.935718 87.399423 273.935718"></polygon>
        <polygon id="unit-347" stroke="#000000" fill="#FFFFFF" fill-rule="nonzero" points="88.70758 196.478516 143.980469 196.478516 143.980469 236.55166 120.814453 236.55166 120.814453 244.232422 111.634766 244.232422 111.634766 252.275391 86.478217 252.275391 86.478217 236.55166 86.478217 205.98778 88.70758 205.98778"></polygon>
        <polygon id="unit-346" stroke="#000000" fill="#FFFFFF" fill-rule="nonzero" points="215.440857 248.575743 217.628882 248.575743 217.628882 286.000218 158.42158 286.000218 158.42158 248.575743 158.732807 248.575743 158.732807 246.41498 160.603488 246.41498 160.603488 236.062519 158.684156 236.062519 158.800537 215.533791 215.440857 215.533791"></polygon>
    </g>
    <g class="unused-spaces" transform="translate(157.717668, 6.250000)" fill="#A5A5A5" fill-rule="nonzero" stroke="#000000">
        <polygon points="305.830181 65.2160158 316.135182 65.2160158 316.135182 67.354956 326.792206 67.354956 326.792206 118.485766 305.830181 118.485766"></polygon>
        <polygon points="326.617201 106.797273 344.103603 106.797273 344.103603 91.2167731 326.617201 91.2167731"></polygon>
        <polygon points="31.169667 0 51.943873 0 51.943873 53.2697505 42.908402 53.2697505 42.908402 50.9184294 33.025825 50.9184294 33.025825 52.3267278 10.449124 52.3267278 10.449124 36.5821819 30.954058 36.5821819"></polygon>
        <polygon points="37.167634 65.2916112 40.525391 65.2916112 40.525391 68.3518781 50.643701 68.3518781 58.921186 76.6395415 58.921186 90.3493457 56.253378 90.3493457 56.253378 100.006934 58.392224 100.006934 58.392224 102.716086 37.167634 102.716086"></polygon>
        <polygon points="71.129347 103.223188 71.129347 100.006551 73.07654 100.006551 73.07654 90.641558 92.091373 90.641558 92.091373 103.223188"></polygon>
        <polygon points="11.248412 174.367776 30.406985 174.367776 30.406985 158.074493 11.248412 158.074493"></polygon>
        <polygon points="0.090386 166.27102 11.157377 166.27102 11.157377 158.094639 0.090386 158.094639"></polygon>
    </g>
    <g class="common-spaces" transform="translate(229.823315, 286.000000)"></g>
    <g class="unit-labels" transform="translate(86.000000, 22.000000)" fill="#000000" font-family="Roboto-Regular, Roboto" font-weight="normal">
        <text id="348" font-size="12">
            <tspan x="165.892578" y="172">348</tspan>
        </text>
        <text id="346" font-size="12">
            <tspan x="161.392578" y="236">346</tspan>
        </text>
        <text id="344" font-size="12">
            <tspan x="160.392578" y="296">344</tspan>
        </text>
        <text id="340" font-size="12">
            <tspan x="196.392578" y="337">340</tspan>
        </text>
        <text id="339" font-size="12">
            <tspan x="261.392578" y="337">339</tspan>
        </text>
        <text id="338" font-size="12">
            <tspan x="269.392578" y="413">338</tspan>
        </text>
        <text id="Phase-III" font-size="18">
            <tspan x="99.4897461" y="500">Phase III</tspan>
        </text>
        <text id="363" font-size="12">
            <tspan x="18.8925781" y="13">363</tspan>
        </text>
        <text id="361" font-size="12">
            <tspan x="74.8925781" y="13">361</tspan>
        </text>
        <text id="351" font-size="12">
            <tspan x="160.892578" y="13">351</tspan>
        </text>
        <text id="353" font-size="12">
            <tspan x="226.892578" y="13">353</tspan>
        </text>
        <text id="355" font-size="12">
            <tspan x="291.892578" y="13">355</tspan>
        </text>
        <text id="357" font-size="12">
            <tspan x="362.892578" y="13">357</tspan>
        </text>
        <text id="359" font-size="12">
            <tspan x="435.892578" y="13">359</tspan>
        </text>
        <text id="364" font-size="12">
            <tspan x="0.892578125" y="82">364</tspan>
        </text>
        <text id="362" font-size="12">
            <tspan x="50.8925781" y="82">362</tspan>
        </text>
        <text id="349" font-size="12">
            <tspan x="89.8925781" y="115">349</tspan>
        </text>
        <text id="347" font-size="12">
            <tspan x="88.8925781" y="201">347</tspan>
        </text>
        <text id="345" font-size="12">
            <tspan x="88.8925781" y="259">345</tspan>
        </text>
        <text id="343" font-size="12">
            <tspan x="88.8925781" y="304">343</tspan>
        </text>
        <text id="341" font-size="12">
            <tspan x="88.8925781" y="347">341</tspan>
        </text>
        <text id="335" font-size="12">
            <tspan x="88.8925781" y="408">335</tspan>
        </text>
        <text id="350" font-size="12">
            <tspan x="156.892578" y="115">350</tspan>
        </text>
        <text id="354" font-size="12">
            <tspan x="198.892578" y="82">354</tspan>
        </text>
        <text id="356" font-size="12">
            <tspan x="258.892578" y="82">356</tspan>
        </text>
        <text id="358" font-size="12">
            <tspan x="330.892578" y="82">358</tspan>
        </text>
        <text id="360" font-size="12">
            <tspan x="438.892578" y="82">360</tspan>
        </text>
    </g>
</svg>