<?xml version="1.0" encoding="utf-8"?>
<!-- Generator: Adobe Illustrator 21.1.0, SVG Export Plug-In . SVG Version: 6.00 Build 0)  -->
<svg version="1.1" id="Level_5" xmlns="http://www.w3.org/2000/svg" xmlns:xlink="http://www.w3.org/1999/xlink" x="0px" y="0px"
     viewBox="0 0 2268 1404" style="enable-background:new 0 0 2268 1404;" xml:space="preserve">
<style type="text/css">
	.st0{fill:#F1F1F1;}
	.st1{fill:#E3E3E4;}
	.st2{fill:#FFFFFF;stroke:#000000;stroke-width:2;stroke-miterlimit:10;}
	.st3{font-family:'ArialMT';}
	.st4{font-size:22px;}
	.st5{fill:#D5D5D6;stroke:#000000;stroke-width:2;stroke-miterlimit:10;}
	.st6{fill:none;stroke:#000000;stroke-width:2;stroke-miterlimit:10;}
</style>
    <polygon class="building-outline" stroke="#000000" stroke-width="3" fill="none"  points="1224.4,1098.8 1824.8,1098.8 1824.8,1083.1 1858,1083.1 1858,1098.8 2203.3,1098.8 2203.3,994.2
	2160.5,994.2 2160.5,970 2202.8,970 2202.8,763.9 2087.6,763.9 2087.6,841.9 2076,841.9 2076,868.6 1857.8,868.6 1857.8,904.5
	1835.5,904.5 1835.5,868.6 1564.1,868.6 1564.1,888.5 1533.7,888.5 1499.2,854.1 1499.2,824.3 1522.5,824.3 1522.5,553.6
	1503.7,553.6 1503.7,522.8 1538.7,487.8 1598.7,487.8 1598.7,507.8 2076.5,507.8 2076.5,484 2098.5,484 2098.5,506.6 2201.8,506.6
	2201.8,278.1 1182.4,278.1 1182.4,339.2 1160,339.2 1160,405 968.5,405 968.5,379.4 968.5,339 947.5,339 947.5,276 65.3,276
	65.3,378.8 101,378.8 101,395.5 65.7,395.5 65.7,615.8 180.5,615.8 180.5,508 185.4,508 608.4,508 608.4,465 627,465 659.9,465
	680.2,485.3 680.2,519 656.3,519 656.3,963 675.1,963 675.1,997.8 656.7,997.8 656.7,1099 974.9,1099 974.9,997 893.5,997
	893.5,974.7 893.5,573.3 854,573.3 854,551.5 872,551.5 872,520.8 907,485.8 936.2,485.8 936.2,532 1235.8,532 1235.8,507
	1293.2,507 1293.2,862.3 1258.3,862.3 1258.3,999 1224.4,999 "/>
    <polygon class="building-outline" stroke="#000000" stroke-width="3" fill="none"  points="2201.4,507.8 2201.4,278 1182.4,278 1182.4,339.2 1160,339.2 1160,405 968.5,405 968.5,379.4
	968.5,339 947.5,339 947.5,276 65.5,276 65.5,378.8 101,378.8 101,395.5 65.5,395.5 65.5,615.8 180.5,615.8 180.5,508.5
	185.4,508.5 608.4,508.5 608.4,465 627,465 659.9,464.7 680.4,485.1 680.2,519 656.3,519 656.3,963 675.1,963 675.1,997.8
	656.7,997.8 656.7,1099 974.9,1099 974.9,997 893.5,997 893.5,974.7 893.5,573.3 854,573.3 854,551.5 872,551.5 872,520.8
	907,485.8 936.2,485.8 936.2,532 1235.8,532 1235.8,507 1293.2,507 1293.2,862.3 1258.3,862.3 1258.3,999 1224.4,999 1224.4,1098.8
	1824.8,1098.8 1824.8,1083.1 1858.2,1083.1 1858.2,1098.8 2203.3,1098.8 2203.3,994.2 2160.5,994.2 2160.5,970 2202.8,970
	2202.8,763.9 2087.6,763.9 2087.6,841.9 2076,841.9 2076,868.7 1858.2,868.7 1858.2,904.5 1835.5,904.5 1835.5,868.7 1564.1,868.7
	1564.1,888.5 1533.7,888.5 1499.6,853.7 1499.6,824.3 1522.5,824.3 1522.5,553.6 1503.7,553.5 1503.7,522.8 1538.8,487.9
	1598.7,487.8 1598.7,507.8 "/>

    <g class="common-spaces" fill="#D5D5D6" fill-rule="nonzero" stroke="#000000" stroke-width="2">
        <rect x="1835.4" y="904" class="st1" width="22.8" height="65.3"/>
        <rect x="1357.3" y="861.8" class="st1" width="33.7" height="58.8"/>
        <path class="st1" d="M1293.2,506.7V406.3h27.5v10.9h73.3v89.4C1394,506.7,1293.4,506.4,1293.2,506.7z"/>
        <path class="st1" d="M792.1,455.1v-49.4h49.4C841.5,405.8,791.6,455.6,792.1,455.1z"/>
        <rect x="656.3" y="519" class="st1" width="86.7" height="34"/>
        <path class="st1" d="M1423.8,457.1v-49.4h49.4C1473.2,407.8,1423.3,457.6,1423.8,457.1z"/>
        <path class="st1" d="M1470.1,968.4h-47.8V919C1422.3,919,1470.6,968.9,1470.1,968.4z"/>
        <rect x="1296" y="278" class="st2" width="71.9" height="103.2"/>
        <rect x="1367.4" y="278" class="st2" width="113.3" height="103.4"/>
        <polygon class="st5" points="2087.6,763.9 2202.8,763.9 2202.7,865.7 2140.7,865.7 2140.7,843.3 2087.6,843.3 "/>
        <g>
	        <text transform="matrix(1 0 0 1 2122.2791 789.3046)"><tspan x="0" y="0" class="st3 st4">West</tspan><tspan x="-11.6" y="22.4" class="st3 st4">Lounge</tspan><tspan x="0" y="44.8" class="st3 st4">Deck</tspan></text>
        </g>
        <path class="st5" d="M2201.8,505.6v-68.8c0-0.6-0.5-1.1-1.1-1.1h-84.7c-0.6,0-1.1,0.5-1.1,1.1v31.1c0,0.6-0.5,1.1-1.1,1.1h-36.5
	c-0.6,0-1.1,0.5-1.1,1.1v36.6c0,0.6,0.5,1.1,1.1,1.1c11.6,0,112.2-0.4,123.4-1.1C2201.4,506.7,2201.8,506.2,2201.8,505.6z"/>
        <g>
	        <text transform="matrix(1 0 0 1 2121.5447 472.7591)"><tspan x="0" y="0" class="st3 st4">East </tspan><tspan x="-25.7" y="20.4" class="st3 st4">Sun Deck</tspan></text>
        </g>
    </g>
    <g class="units" fill="#FFFFFF" fill-rule="nonzero" stroke="#000000">
            <g>
	<text transform="matrix(1 0 0 1 1404.5098 335.3921)" class="st3 st4">532</text>
</g>
        <rect x="1480.2" y="278" class="st2" width="83.8" height="103.2"/>
        <g>
	<text transform="matrix(1 0 0 1 1505.9004 334.7251)" class="st3 st4">534</text>
</g>
        <rect x="1599.2" y="278" class="st2" width="113.3" height="103.4"/>
        <g>
	<text transform="matrix(1 0 0 1 1636.3066 335.3921)" class="st3 st4">536</text>
</g>
        <rect x="1712" y="278" class="st2" width="74" height="103.2"/>
        <g>
	<text transform="matrix(1 0 0 1 1731.9609 334.5586)" class="st3 st4">538</text>
</g>
        <rect x="1785.9" y="278" class="st2" width="72.8" height="103.2"/>
        <g>
	<text transform="matrix(1 0 0 1 1804.8398 334.5586)" class="st3 st4">540</text>
</g>
        <rect x="1858.3" y="278" class="st2" width="112.9" height="103.4"/>
        <g>
	<text transform="matrix(1 0 0 1 1897.457 335.3921)" class="st3 st4">542</text>
</g>
        <rect x="1970.6" y="278" class="st2" width="113.6" height="103.4"/>
        <g>
	<text transform="matrix(1 0 0 1 2009.8125 335.3921)" class="st3 st4">544</text>
</g>
        <rect x="2083.8" y="278" class="st2" width="117.7" height="103.4"/>
        <g>
	<text transform="matrix(1 0 0 1 2126.2168 335.3921)" class="st3 st4">546</text>
</g>
        <rect x="1599.2" y="407.1" class="st2" width="113.3" height="100.7"/>
        <g>
	<text transform="matrix(1 0 0 1 1636.3066 464.3916)" class="st3 st4">535</text>
</g>
        <rect x="1712" y="406.9" class="st2" width="74" height="100.8"/>
        <g>
	<text transform="matrix(1 0 0 1 1731.9609 463.5586)" class="st3 st4">537</text>
</g>
        <rect x="1785.9" y="406.9" class="st2" width="72.8" height="100.8"/>
        <g>
	<text transform="matrix(1 0 0 1 1805.8516 463.5586)" class="st3 st4">539</text>
</g>
        <rect x="1858.8" y="406.9" class="st2" width="72.6" height="100.8"/>
        <g>
	<text transform="matrix(1 0 0 1 1878.7305 463.5586)" class="st3 st4">541</text>
</g>
        <rect x="1931.7" y="406.9" class="st2" width="72.3" height="100.8"/>
        <g>
	<text transform="matrix(1 0 0 1 1950.5977 463.5586)" class="st3 st4">543</text>
</g>
        <rect x="2003.5" y="406.9" class="st2" width="73" height="100.8"/>
        <g>
	<text transform="matrix(1 0 0 1 2022.4648 463.5586)" class="st3 st4">545</text>
</g>
        <rect x="2003.5" y="868.7" class="st2" width="72.8" height="100.9"/>
        <g>
	<text transform="matrix(1 0 0 1 2021.4277 925.2256)" class="st3 st4">503</text>
</g>
        <rect x="1930.6" y="868.7" class="st2" width="72.8" height="100.9"/>
        <g>
	<text transform="matrix(1 0 0 1 1948.5488 925.2256)" class="st3 st4">505</text>
</g>
        <rect x="1858.2" y="868.7" class="st2" width="72.3" height="100.9"/>
        <g>
	<text transform="matrix(1 0 0 1 1875.6699 925.2256)" class="st3 st4">507</text>
</g>
        <rect x="1752.4" y="868.7" class="st2" width="83" height="100.9"/>
        <g>
	<text transform="matrix(1 0 0 1 1775.4609 925.2256)" class="st3 st4">509</text>
</g>
        <rect x="1679.6" y="868.7" class="st2" width="72.8" height="100.9"/>
        <g>
	<text transform="matrix(1 0 0 1 1697.5215 925.2256)" class="st3 st4">511</text>
</g>
        <rect x="1564.1" y="868.7" class="st2" width="115.9" height="101.1"/>
        <g>
	<text transform="matrix(1 0 0 1 1601.8672 926.3916)" class="st3 st4">513</text>
</g>
        <rect x="1638.7" y="994.2" class="st2" width="114.2" height="104.6"/>
        <g>
	<text transform="matrix(1 0 0 1 1676.7695 1051.3916)" class="st3 st4">512</text>
</g>
        <rect x="1566.8" y="994.2" class="st2" width="71.7" height="104.6"/>
        <g>
	<text transform="matrix(1 0 0 1 1586.0078 1052.7256)" class="st3 st4">514</text>
</g>
        <rect x="1753.1" y="994.2" class="st2" width="71.7" height="104.6"/>
        <g>
	<text transform="matrix(1 0 0 1 1772.2559 1052.7256)" class="st3 st4">510</text>
</g>
        <rect x="1858.2" y="994.2" class="st2" width="115.4" height="104.6"/>
        <g>
	<text transform="matrix(1 0 0 1 1897.4316 1051.3916)" class="st3 st4">508</text>
</g>
        <rect x="1973.7" y="994.2" class="st2" width="114.2" height="104.6"/>
        <g>
	<text transform="matrix(1 0 0 1 2011.8125 1051.3916)" class="st3 st4">506</text>
</g>
        <rect x="2088.1" y="994.2" class="st2" width="115.2" height="104.6"/>
        <g>
	<text transform="matrix(1 0 0 1 2127.2051 1051.3916)" class="st3 st4">504</text>
</g>
        <rect x="2098.9" y="898.7" class="st2" width="103.9" height="70.8"/>
        <g>
	<text transform="matrix(1 0 0 1 2133.4453 938.8916)" class="st3 st4">502</text>
</g>
        <g>
	<text transform="matrix(1 0 0 1 1314.9258 334.4111)" class="st3 st4">548</text>
</g>
        <rect x="65.5" y="275.4" class="st2" width="112.8" height="103.3"/>
        <g>
	<text transform="matrix(1 0 0 1 104.457 332.7254)" class="st3 st4">569</text>
</g>
        <rect x="177.6" y="275.4" class="st2" width="113.6" height="103.3"/>
        <g>
	<text transform="matrix(1 0 0 1 216.8125 332.7254)" class="st3 st4">568</text>
</g>
        <rect x="290.8" y="275.4" class="st2" width="117.2" height="103.3"/>
        <g>
	<text transform="matrix(1 0 0 1 333.2168 332.7254)" class="st3 st4">566</text>
</g>
        <rect x="407.9" y="275.9" class="st2" width="74.8" height="103.3"/>
        <g>
	<text transform="matrix(1 0 0 1 427.8862 332.5586)" class="st3 st4">564</text>
</g>
        <rect x="482.3" y="276.1" class="st2" width="116" height="103.3"/>
        <g>
	<text transform="matrix(1 0 0 1 523.0415 333.3921)" class="st3 st4">562</text>
</g>
        <rect x="637.3" y="276.1" class="st2" width="112.9" height="103.3"/>
        <g>
	<text transform="matrix(1 0 0 1 676.457 333.3921)" class="st3 st4">560</text>
</g>
        <rect x="749.6" y="276.1" class="st2" width="113.6" height="103.3"/>
        <g>
	<text transform="matrix(1 0 0 1 788.8125 333.3921)" class="st3 st4">558</text>
</g>
        <polygon class="st2" points="863.2,379.4 968.3,379.4 968.3,339 947.5,339 947.5,296 947.5,276 863.2,276 "/>
        <g>
	<text transform="matrix(1 0 0 1 891.8125 333.3921)" class="st3 st4">556</text>
</g>
        <rect x="495.2" y="405.5" class="st2" width="113.3" height="103"/>
        <g>
	<text transform="matrix(1 0 0 1 532.3066 462.7249)" class="st3 st4">561</text>
</g>
        <rect x="298.9" y="405" class="st2" width="113.3" height="103.5"/>
        <g>
	<text transform="matrix(1 0 0 1 336.0566 462.2249)" class="st3 st4">565</text>
</g>
        <rect x="185.4" y="405.2" class="st2" width="113.3" height="103.2"/>
        <g>
	<text transform="matrix(1 0 0 1 222.5566 462.4749)" class="st3 st4">567</text>
</g>
        <rect x="412" y="405.5" class="st2" width="83.2" height="103"/>
        <g>
	<text transform="matrix(1 0 0 1 436.5566 462.7249)" class="st3 st4">563</text>
</g>
        <rect x="65.5" y="395.3" class="st2" width="99" height="81.9"/>
        <g>
	<text transform="matrix(1 0 0 1 96.7233 443.8083)" class="st3 st4">570</text>
</g>
        <rect x="65.5" y="512.5" class="st2" width="115" height="103.3"/>
        <g>
	<text transform="matrix(1 0 0 1 105.3066 570.725)" class="st3 st4">571</text>
</g>
        <polygon class="st2" points="661.5,406 722,406 761.5,445.5 761.5,519 680.5,519 680.4,485.1 659.9,464.7 659.9,405.8 "/>
        <g>
	<text transform="matrix(1 0 0 1 694.8862 466.5586)" class="st3 st4">559</text>
</g>
        <rect x="656.5" y="553" class="st2" width="105.8" height="70.5"/>
        <g>
	<text transform="matrix(1 0 0 1 692.1362 595.0586)" class="st3 st4">573</text>
</g>
        <rect x="656.5" y="623.5" class="st2" width="105.8" height="70.5"/>
        <g>
	<text transform="matrix(1 0 0 1 691.8862 665.5586)" class="st3 st4">575</text>
</g>
        <rect x="656.5" y="694.3" class="st2" width="105.8" height="70.5"/>
        <g>
	<text transform="matrix(1 0 0 1 691.9696 735.392)" class="st3 st4">577</text>
</g>
        <rect x="656.5" y="764.8" class="st2" width="105.8" height="70.5"/>
        <g>
	<text transform="matrix(1 0 0 1 691.7196 805.892)" class="st3 st4">579</text>
</g>
        <rect x="791.7" y="573.3" class="st2" width="101.6" height="71.9"/>
        <g>
	<text transform="matrix(1 0 0 1 823.1362 615.392)" class="st3 st4">574</text>
</g>
        <rect x="791.7" y="645.2" class="st2" width="101.6" height="71.9"/>
        <g>
	<text transform="matrix(1 0 0 1 822.8862 685.892)" class="st3 st4">576</text>
</g>
        <rect x="791.7" y="717.5" class="st2" width="101.6" height="71.9"/>
        <g>
	<text transform="matrix(1 0 0 1 822.9696 761.7253)" class="st3 st4">578</text>
</g>
        <rect x="791.7" y="789.4" class="st2" width="101.6" height="71.9"/>
        <g>
	<text transform="matrix(1 0 0 1 822.7196 832.2253)" class="st3 st4">580</text>
</g>
        <rect x="656.5" y="892.5" class="st2" width="105.8" height="70.5"/>
        <g>
	<text transform="matrix(1 0 0 1 691.3862 933.5587)" class="st3 st4">583</text>
</g>
        <rect x="656.5" y="835.2" class="st2" width="105.8" height="57.5"/>
        <g>
	<text transform="matrix(1 0 0 1 691.3862 870.2253)" class="st3 st4">581</text>
</g>
        <rect x="791.7" y="861.8" class="st2" width="101.6" height="112.9"/>
        <g>
	<text transform="matrix(1 0 0 1 822.7196 922.8919)" class="st3 st4">582</text>
</g>
        <rect x="862" y="997" class="st2" width="112.9" height="101.3"/>
        <g>
	<text transform="matrix(1 0 0 1 900.0529 1056.2252)" class="st3 st4">586</text>
</g>
        <rect x="656.7" y="997.7" class="st2" width="112.9" height="101.3"/>
        <g>
	<text transform="matrix(1 0 0 1 694.7196 1056.8918)" class="st3 st4">584</text>
</g>
        <rect x="769.3" y="997.7" class="st2" width="57.3" height="101.3"/>
        <g>
	<text transform="matrix(1 0 0 1 780.3862 1056.8918)" class="st3 st4">585</text>
</g>
        <rect x="936.7" y="431.3" class="st2" width="73.3" height="100.7"/>
        <g>
	<text transform="matrix(1 0 0 1 956.7012 486.9019)" class="st3 st4">555</text>
</g>
        <rect x="1010.2" y="431.3" class="st2" width="112.8" height="100.7"/>
        <g>
	<text transform="matrix(1 0 0 1 1048.6182 486.9019)" class="st3 st4">553</text>
</g>
        <rect x="1122.9" y="431.3" class="st2" width="112.8" height="100.7"/>
        <g>
	<text transform="matrix(1 0 0 1 1161.3682 486.9019)" class="st3 st4">551</text>
</g>
        <polygon class="st2" points="1182.4,278 1262.2,278 1262.2,378.2 1160,378.2 1160,339.2 1181.5,339.2 1181.5,278 "/>
        <g>
	<text transform="matrix(1 0 0 1 1203.1758 334.4111)" class="st3 st4">550</text>
</g>
        <path class="st2" d="M791.8,551.5H872v-30.8l17-16.8l-72.9-72.9l-24,24C792.1,455.1,791.1,550.9,791.8,551.5z"/>
        <g>
	<text transform="matrix(1 0 0 1 813.7012 507.9019)" class="st3 st4">572</text>
</g>
        <polygon class="st2" points="816.1,431.1 841.5,405.8 936.2,405.8 936.2,486 907.2,486 889,504 "/>
        <g>
	<text transform="matrix(1 0 0 1 869.9512 449.6519)" class="st3 st4">557</text>
</g>s
        <rect x="1235.7" y="406.3" class="st2" width="57.3" height="100.7"/>
        <g>
	<text transform="matrix(1 0 0 1 1246.7195 461.8919)" class="st3 st4">549</text>
</g>
        <rect x="1293.2" y="506.7" class="st2" width="100.2" height="84.9"/>
        <g>
	<text transform="matrix(1 0 0 1 1325.803 556.7253)" class="st3 st4">530</text>
</g>
        <rect x="1293.2" y="591.6" class="st2" width="100.2" height="70.9"/>
        <g>
	<text transform="matrix(1 0 0 1 1325.553 634.2252)" class="st3 st4">528</text>
</g>
        <rect x="1293.2" y="662.8" class="st2" width="100.2" height="70.9"/>
        <g>
	<text transform="matrix(1 0 0 1 1325.6362 704.0586)" class="st3 st4">526</text>
</g>
        <rect x="1293.2" y="733.7" class="st2" width="100.2" height="70.9"/>
        <g>
	<text transform="matrix(1 0 0 1 1325.3862 774.5586)" class="st3 st4">524</text>
</g>
        <rect x="1293.2" y="804.5" class="st2" width="100.2" height="57.8"/>
        <g>
	<text transform="matrix(1 0 0 1 1325.053 838.892)" class="st3 st4">522</text>
</g>
        <rect x="1258.3" y="862.1" class="st2" width="99" height="112.9"/>
        <g>
	<text transform="matrix(1 0 0 1 1289.3862 923.2252)" class="st3 st4">520</text>
</g>
        <rect x="1338.7" y="999.3" class="st2" width="114.2" height="99.5"/>
        <g>
	<text transform="matrix(1 0 0 1 1376.7695 1055.3916)" class="st3 st4">518</text>
</g>
        <rect x="1224.4" y="999.3" class="st2" width="114.2" height="99.5"/>
        <g>
	<text transform="matrix(1 0 0 1 1262.4362 1055.3916)" class="st3 st4">519</text>
</g>
        <path class="st2" d="M1423.4,553.5l80.2,0v-30.8l17-16.8l-72.9-72.9l-24,24C1423.8,457.1,1422.8,552.9,1423.4,553.5z"/>
        <g>
	<text transform="matrix(1 0 0 1 1445.3679 509.9019)" class="st3 st4">531</text>
</g>
        <polygon class="st2" points="1447.8,433.1 1473.2,407.8 1567.9,407.8 1567.9,487.9 1538.8,487.9 1520.7,506 "/>
        <g>
	<text transform="matrix(1 0 0 1 1501.6179 451.6519)" class="st3 st4">533</text>
</g>
        <path class="st2" d="M1563.4,968.8v-80.2h-29.8l-16.2-17l-70.6,72.9l23.2,24C1470.1,968.4,1562.8,969.4,1563.4,968.8z"/>
        <g>
	<text transform="matrix(1 0 0 1 1495.3679 936.2353)" class="st3 st4">515</text>
</g>
        <polygon class="st2" points="1446.9,944.4 1422.3,919 1422.3,824.3 1499.6,824.3 1499.6,853.7 1517.5,871.5 "/>
        <g>
	<text transform="matrix(1 0 0 1 1442.2844 875.3187)" class="st3 st4">521</text>
</g>
        <rect x="1452.9" y="998.1" class="st2" width="83" height="100.7"/>
        <g>
	<text transform="matrix(1 0 0 1 1475.9609 1054.7256)" class="st3 st4">516</text>
</g>
        <rect x="1422.3" y="553.6" class="st2" width="100.2" height="70.9"/>
        <g>
	<text transform="matrix(1 0 0 1 1454.678 596.2252)" class="st3 st4">529</text>
</g>
        <rect x="1422.3" y="624.8" class="st2" width="100.2" height="70.9"/>
        <g>
	<text transform="matrix(1 0 0 1 1454.7612 666.0586)" class="st3 st4">527</text>
</g>
        <rect x="1422.3" y="695.7" class="st2" width="100.2" height="70.9"/>
        <g>
	<text transform="matrix(1 0 0 1 1454.5112 736.5586)" class="st3 st4">525</text>
</g>
        <rect x="1422.3" y="766.5" class="st2" width="100.2" height="57.8"/>
        <g>
	<text transform="matrix(1 0 0 1 1454.178 800.892)" class="st3 st4">523</text>
</g>
    </g>

</svg>
