<?xml version="1.0" encoding="UTF-8"?>
<svg class="c-building__floor" viewBox="0 0 578 805" version="1.1" xmlns="http://www.w3.org/2000/svg" xmlns:xlink="http://www.w3.org/1999/xlink">
    <polygon id="building-bg-fill" stroke="#000000" stroke-width="6" fill="#E9E9E9" fill-rule="nonzero" points="215.01639 0 215.01639 2.00592485 211.259437 2.00592485 211.259437 6.06188188 190.486489 6.06188188 190.486489 2.21016098 186.775528 2.21016098 186.775528 0.198483004 166.190379 0.198483004 166.190379 2.00592485 82.020651 2.00592485 81.9928643 38.5526866 70.2429256 38.5526866 70.2429256 91.9446146 74.2375023 91.9446146 74.2375023 126.48641 96.5559662 126.48641 96.5559662 128.444393 124.043713 128.444393 124.043713 124.528428 148.191308 124.584042 163.595676 140.530761 163.663706 164.078324 159.410425 164.078324 159.410425 206.070424 157.087841 206.070424 157.171201 264.556749 159.307902 264.556749 159.307902 344.358423 155.467589 344.358423 155.458008 440.883488 159.364434 440.883488 159.404676 525.139044 157.794964 525.139044 157.794964 583.569755 159.404676 583.569755 159.404676 633.515558 162.980536 633.515558 162.980536 656.316174 146.940907 672.662735 123.750516 672.424939 123.750516 667.243286 68.1704215 667.243286 68.1704215 668.801426 43.5935701 668.801426 43.5935701 666.672767 27.0068303 666.672767 27.0068303 668.801426 3.53953032 668.801426 3.53953032 711.598964 1.4152855 711.598964 1.4152855 722.802227 1.4152855 741.886319 1.4152855 751.831564 3.52707421 751.831564 3.52707421 794.917718 27.24158 794.917718 27.24158 796.734748 42.4111983 796.734748 42.4111983 794.917718 44.3323128 794.917718 44.3323128 793.682713 64.8302693 793.682713 64.8302693 794.779643 88.2381632 794.779643 88.2381632 796.734748 120.878905 796.734748 120.878905 794.808409 143.804843 794.808409 143.804843 796.596673 217.804632 796.596673 217.822837 793.897496 233.965957 793.897496 233.965957 796.887206 277.171391 796.887206 277.171391 798.842312 306.768052 798.842312 306.768052 797.082813 308.326023 797.082813 308.326023 795.088394 358.343988 795.088394 358.343988 798.871078 376.318146 798.871078 376.318146 795.088394 489.756221 795.088394 489.756221 798.958333 553.238899 798.842312 553.238899 740.337769 553.311719 740.337769 557.269886 740.337769 557.269886 723.92984 561.02109 723.92984 561.02109 709.362914 566.448118 709.362914 566.448118 686.269848 568.321325 686.269848 568.321325 670.194642 566.348469 670.194642 566.348469 667.073569 522.242363 667.073569 522.242363 669.068946 501.557565 669.068946 501.557565 666.985354 478.62971 666.985354 478.62971 665.108875 460.56836 665.108875 460.56836 666.985354 458.839836 666.985354 458.839836 668.951007 425.334832 668.951007 425.334832 667.102334 399.444341 667.102334 399.444341 669.000867 351.799743 669.233869 351.799743 667.118635 350.152663 667.118635 350.152663 665.035043 332.287735 665.035043 332.287735 667.118635 321.502665 667.118635 321.502665 672.759579 298.156094 672.827658 282.221862 656.965318 282.235276 633.568295 285.922283 632.991065 286.029597 495.233313 282.034062 495.233313 282.034062 467.714171 293.426607 457.294293 303.311004 468.403588 369.922416 468.403588 369.922416 470.277191 391.306672 470.277191 391.306672 468.433313 396.748073 468.433313 396.830475 424.588705 398.037759 424.588705 398.037759 421.743782 400.553892 421.743782 400.553892 406.020476 398.037759 406.020476 398.037759 402.807353 396.587102 402.807353 396.587102 331.440727 350.588626 331.202931 350.588626 329.535482 321.61477 329.535482 321.61477 332.808055 297.909846 333.104341 282.592671 317.127897 282.592671 293.655125 287.797406 293.655125 287.797406 259.954245 285.821676 259.954245 285.821676 220.148335 291.4595 219.84246 301.681171 202.893737 301.681171 180.971433 291.4595 163.778203 282.336841 163.778203 282.336841 140.297759 298.165675 124.696228 321.899344 124.631026 321.899344 128.444393 371.408525 128.444393 371.408525 126.594761 415.727343 126.594761 415.727343 128.444393 465.11867 128.444393 465.11867 124.489115 485.532308 124.489115 485.532308 128.439598 568.284915 128.439598 568.284915 95.7186683 570.396703 95.7186683 570.396703 73.2920066 572.373391 73.2920066 572.373391 57.1448868 570.396703 57.1448868 570.396703 34.4228977 568.479421 34.4228977 568.479421 2.05866188 501.00758 2.05866188 501.00758 5.83559208 477.936959 5.83559208 477.936959 2.05866188 456.091827 2.05866188 456.091827 3.91404648 425.044509 3.91404648 425.044509 2.12194632 376.570143 2.12194632 376.570143 5.84422178 322.983025 5.84422178 322.983025 2.12194632 285.287022 2.12194632 263.444764 2.12194632 263.444764 4.03198566 233.812651 4.03198566 233.812651 2.20057243 229.816158 2.20057243 229.816158 0"></polygon>
    <g class="units">
        <polygon id="unit-515" stroke="#000000" fill="#FFFFFF" fill-rule="nonzero" points="206.858305 740.62305 206.858305 742.353684 196.443892 742.353684 196.443892 740.62305 181.344525 740.62305 181.344525 797.00679 218.057846 797.00679 218.057846 740.62305"></polygon>
        <polygon id="unit-513" stroke="#000000" fill="#FFFFFF" fill-rule="nonzero" points="181.344909 742.589488 170.83371 742.589488 170.83371 740.525966 161.518426 740.525966 161.518426 756.957393 144.052147 756.957393 144.032023 797.007558 181.344909 797.007558"></polygon>
        <polygon id="unit-509" stroke="#000000" fill="#FFFFFF" fill-rule="nonzero" points="44.54898 740.511576 39.7260371 740.511576 39.7260371 742.248925 29.1822579 742.248925 29.1822579 740.511576 27.19386 740.511576 27.19386 732.897363 1.6264172 732.897363 1.6264172 742.27003 1.6264172 752.220215 3.7393894 752.220215 3.7393894 795.327769 27.4564243 795.327769 27.4564243 797.145701 42.6276606 797.145701 42.6276606 795.327769 44.54898 795.327769"></polygon>
        <polygon id="unit-510" stroke="#000000" fill="#FFFFFF" fill-rule="nonzero" points="60.6632541 667.589251 60.6632541 724.43443 107.471855 724.43443 107.471855 722.361315 117.997427 722.361315 117.997427 724.485274 123.976036 724.485274 123.976036 666.589251 70.8632812 666.589251 70.7304688 667.589251"></polygon>
        <polygon id="unit-531" stroke="#000000" fill="#FFFFFF" fill-rule="nonzero" points="214.501419 581.2926 214.501419 561.101479 158.006005 561.101479 158.006005 576.692414 159.633137 576.692414 159.633137 634.082031 214.501419 634.082031 214.501419 593.444986 212.437318 593.444986 212.437318 581.393486"></polygon>
        <polygon id="unit-510" stroke="#000000" fill="#FFFFFF" fill-rule="nonzero" points="154.428895 664.488263 162.20957 656.731627 162.20957 633.844964 214.501611 633.844964 214.501611 644.654138 212.53717 644.654138 212.53717 695.132812 198.92749 709.736726"></polygon>
        <polygon id="unit-512" stroke="#000000" fill="#FFFFFF" fill-rule="nonzero" points="153.888688 724.442392 153.888688 722.436431 133.120594 722.436431 133.120594 724.484603 123.97594 724.484603 123.97594 672.773766 146.006067 672.885067 154.428895 664.488263 198.92749 709.736726 185.394531 724.258313"></polygon>
        <polygon id="unit-508" stroke="#000000" fill="#FFFFFF" fill-rule="nonzero" points="34.8157802 732.897747 34.8157802 724.197571 37.3969847 724.197571 37.3969847 722.316322 50.8565668 722.316322 50.8565668 724.188937 61.122502 724.188937 61.122502 668.148261 3.38617792 668.148261 3.38617792 711.967056 0.627087986 711.967056 0.627087986 732.897747"></polygon>
        <polygon id="unit-511" stroke="#000000" fill="#FFFFFF" fill-rule="nonzero" points="79.7136814 740.498433 143.941372 740.498433 143.941372 795.245554 121.104023 795.245554 121.104023 797.17381 87.1378447 797.17381 87.1378447 795.215815 59.8277262 795.215815 59.8277262 740.608756 68.5691483 740.608756 68.5691483 742.564833 79.7136814 742.564833"></polygon>
        <polygon id="unit-534" stroke="#000000" fill="#FFFFFF" fill-rule="nonzero" points="286.430665 496.134766 231.480966 496.134766 231.480966 517.121118 233.183792 517.121118 233.183792 532.176895 231.446449 532.176895 231.446449 565.115318 286.430665 565.115318"></polygon>
        <polygon id="unit-532" stroke="#000000" fill="#FFFFFF" fill-rule="nonzero" points="231.248265 561.831135 231.248265 594.115352 233.340363 594.115352 233.340363 609.192346 231.248265 609.192346 231.248265 618.214875 286.323568 618.214875 286.323568 561.831135"></polygon>
        <polygon id="unit-530" stroke="#000000" fill="#FFFFFF" fill-rule="nonzero" points="282.622817 657.553735 290.400122 665.330257 251.982635 707.24213 231.487773 689.314453 231.487773 653.171674 233.374688 653.171674 233.374688 641.140042 231.175205 641.140042 231.175205 633.785155 282.633919 633.785155"></polygon>
        <polygon id="unit-518" stroke="#000000" fill="#FFFFFF" fill-rule="nonzero" points="290.400122 665.330257 298.054447 672.983813 312.255211 672.983813 312.255211 724.503003 271.715208 724.503003 251.982635 707.24213"></polygon>
        <polygon id="unit-517" stroke="#000000" fill="#FFFFFF" fill-rule="nonzero" points="233.511646 740.606166 244.608146 740.606166 244.608146 742.416424 259.172339 742.416424 259.172339 740.642621 292.00706 740.642621 292.00706 799.239538 277.293752 799.239538 277.293752 797.297851 233.511646 797.297851"></polygon>
        <polygon id="unit-519" stroke="#000000" fill="#FFFFFF" fill-rule="nonzero" points="292.006677 740.642717 298.523831 740.642717 298.523831 742.23041 308.770548 742.23041 308.770548 740.634083 342.16422 740.634083 342.16422 766.335938 352.224609 766.335938 352.224609 775.597656 361.746094 775.597656 361.746094 795.498242 308.570271 795.498242 308.570271 797.493651 307.012134 797.493651 307.012134 799.254024 292.006677 799.254024"></polygon>
        <polygon id="unit-521" stroke="#000000" fill="#FFFFFF" fill-rule="nonzero" points="361.456553 776 352 776 352 767 342 767 342 740 363 740 363 740.556473 367.360418 740.556473 367.360418 742.62671 377.694338 742.62671 377.694338 740.556473 416.583432 740.556473 416.583432 795.13112 376.007793 795.13112 376.007793 799.304005 361.456553 799.304005"></polygon>
        <polygon id="unit-523" stroke="#000000" fill="#FFFFFF" fill-rule="nonzero" points="416.583432 740.556473 466.364752 740.556473 466.364752 742.864624 478.500789 742.864624 478.500789 740.720518 490.187758 740.720518 490.187758 795.498338 416.675405 795.498338"></polygon>
        <polygon id="unit-525" stroke="#000000" fill="#FFFFFF" fill-rule="nonzero" points="490.270463 742.551978 502.398381 742.454126 502.398381 740.720614 553.583245 740.720614 553.583245 799.253256 490.270463 799.371254"></polygon>
        <polygon id="unit-527" stroke="#000000" fill="#FFFFFF" fill-rule="nonzero" points="539.102789 710.578328 539.102789 724.30444 544.31566 724.30444 544.31566 722.501857 554.491997 722.501857 554.491997 724.30444 561.368207 724.30444 561.368207 709.729319 566.740395 709.729319 566.740395 686.624784 568.593397 686.624784 568.593397 670.543512 566.641771 670.543512 566.641771 667.41993 522.989071 667.41993 522.989071 694.734971 543.937284 694.734971 543.937284 710.393177"></polygon>
        <polygon id="unit-526" stroke="#000000" fill="#FFFFFF" fill-rule="nonzero" points="501.394173 724.242276 473.426319 724.242276 473.426319 722.47231 463.039699 722.47231 463.039699 724.242276 441.874477 724.242276 441.874477 669.308085 458.977149 669.308085 458.977149 667.331863 460.694457 667.331863 460.694457 665.454451 478.627715 665.454451 478.627715 667.331863 501.394173 667.331863"></polygon>
        <polygon id="unit-524" stroke="#000000" fill="#FFFFFF" fill-rule="nonzero" points="442.203958 724.242276 419.95141 724.242276 419.95141 722.502049 411.28113 722.502049 411.28113 724.242276 396.891072 724.242276 396.891072 669.404978 399.219997 669.404978 399.219997 667.448901 420.697779 667.448901 420.697779 669.298492 442.203958 669.298492"></polygon>
        <polygon id="unit-522" stroke="#000000" fill="#FFFFFF" fill-rule="nonzero" points="396.89088 724.242276 385.580489 724.242276 385.580489 722.41475 375.348146 722.41475 375.348146 724.242276 352.048914 724.242276 352.048914 669.580536 396.89088 669.580536"></polygon>
        <polygon id="unit-520" stroke="#000000" fill="#FFFFFF" fill-rule="nonzero" points="352.048818 724.242276 345.778897 724.242276 345.778897 722.41475 335.538887 722.41475 335.538887 724.334372 311.591338 724.334372 311.591338 673.137736 321.74851 673.137736 321.74851 667.464251 332.53473 667.464251 332.53473 665.381542 350.401563 665.381542 350.401563 667.464251 352.048818 667.464251"></polygon>
        <polygon id="unit-550" stroke="#000000" fill="#FFFFFF" fill-rule="nonzero" points="282.578892 163.857893 229.948156 163.857893 229.948156 155.688227 229.402904 155.688227 229.402904 143.482655 231.46413 143.482655 231.46413 133.142022 229.636721 133.142022 229.636721 109.303598 250.603538 109.303598 250.603538 95.233085 274.470062 95.233085 274.470062 115.976706 290.444323 132.575057 282.578892 140.383055"></polygon>
        <polygon id="unit-554" stroke="#000000" fill="#FFFFFF" fill-rule="nonzero" points="298.409414 124.773583 290.443365 132.574865 274.470062 115.977474 274.470062 95.2328931 250.603538 95.2328931 250.603538 71.6458135 292.791112 71.6458135 292.791112 73.4934857 303.171986 73.4934857 303.171986 71.7244787 322.146572 71.7244787 322.146572 124.708348"></polygon>
        <polygon id="unit-556" stroke="#000000" fill="#FFFFFF" fill-rule="nonzero" points="322.146093 71.7240949 360.078975 71.7240949 360.078975 73.4940613 370.06217 73.4940613 370.06217 71.6454298 393.358527 71.6454298 393.358527 126.672675 371.660554 126.672675 371.660554 128.523225 322.146093 128.523225"></polygon>
        <polygon id="unit-558" stroke="#000000" fill="#FFFFFF" fill-rule="nonzero" points="393.359006 71.6459094 418.702215 71.6459094 418.702215 73.607742 428.228318 73.607742 428.228318 71.6459094 465.379256 71.6459094 465.379256 128.522746 415.982662 128.522746 415.982662 126.672196 393.359006 126.672196"></polygon>
        <polygon id="unit-560" stroke="#000000" fill="#FFFFFF" fill-rule="nonzero" points="502.357455 112.572519 502.357455 71.672387 517.22208 71.672387 517.22208 75.2238316 520.624709 75.2238316 520.624709 76.9381567 530.458482 76.9381567 530.458482 71.681021 572.646087 71.681021 572.646087 73.3435422 570.662021 73.3435422 570.662021 95.7813428 568.54235 95.7813428 568.54235 128.518525 485.480874 128.518525 485.480874 112.572519"></polygon>
        <polygon id="unit-535" stroke="#000000" fill="#FFFFFF" fill-rule="nonzero" points="155.242259 413.947266 214.383631 413.947266 214.383631 460.255859 159.214844 460.255859 159.214844 441.286999 155.176329 441.088418"></polygon>
        <polygon id="unit-541" stroke="#000000" fill="#FFFFFF" fill-rule="nonzero" points="216.838577 352.322185 216.838577 377.296469 215.012732 377.296469 215.012732 390.002136 216.726012 390.002136 216.838577 413.947266 155.242259 413.947266 155.242259 352.322185"></polygon>
        <polygon id="unit-544" stroke="#000000" fill="#FFFFFF" fill-rule="nonzero" points="230.942316 286 287.441381 286 287.441381 293.926734 282.251532 293.926734 282.251532 317.516621 290.175822 325.850092 252.980247 356.182759 230.942316 333.573741"></polygon>
        <polygon id="unit-540" stroke="#000000" fill="#FFFFFF" fill-rule="nonzero" points="290.175822 325.850092 297.520233 331.573741 321.149615 331.573741 333.220703 331.573741 333.220703 349.425781 321.149615 349.425781 321.149615 378.561018 274.943359 378.715019 252.980247 356.182759"></polygon>
        <polygon id="unit-548" stroke="#000000" fill="#FFFFFF" fill-rule="nonzero" points="287 219.343352 287 232 261 232 261 225 254 225 254 215.518754 230.062762 215.518754 230.062762 163.337023 291.538615 163.337023 301.715271 180.524733 301.715271 202.41802 291.538615 219.343352 287 219.343352"></polygon>
        <polygon id="unit-559" stroke="#000000" fill="#FFFFFF" fill-rule="nonzero" points="498.039961 59.0059516 498.039961 5.82733757 501.272186 5.82733757 501.272186 2.07539271 568.752181 2.07539271 568.752181 34.4557033 570.669667 34.4557033 570.669667 57.1870594 572.645608 57.1870594 572.645608 59.0059516 531.121152 59.0059516 531.121152 57.0681023 520.976969 57.0681023 520.976969 59.0059516"></polygon>
        <polygon id="unit-557" stroke="#000000" fill="#FFFFFF" fill-rule="nonzero" points="498.039961 59.0059516 459.38359 59.0059516 459.38359 57.1515641 449.458849 57.1515641 449.458849 59.0059516 425.301971 59.0500808 425.301971 3.93169885 456.352601 3.93169885 456.352601 2.07539271 478.200063 2.07539271 478.200063 5.85323952 498.039961 5.85323952"></polygon>
        <polygon id="unit-555" stroke="#000000" fill="#FFFFFF" fill-rule="nonzero" points="376.821477 2.13842078 425.301971 2.13842078 425.301971 59.049793 402.288302 59.049793 402.288302 57.2097955 392.561922 57.2097955 392.561922 59.049793 353.896926 59.049793 353.896926 5.8615857 376.821477 5.8615857"></polygon>
        <polygon id="unit-553" stroke="#000000" fill="#FFFFFF" fill-rule="nonzero" points="323.228836 5.86139384 353.966113 5.86139384 353.966113 59.0496012 331.599272 59.0054719 331.599272 57.1050366 322.147914 57.1050366 322.147914 58.968058 302.857101 58.968058 302.857101 35.7541583 294.040113 35.7541583 294.040113 27.5163801 285.528812 27.5163801 285.528812 2.13822892 323.228836 2.13822892"></polygon>
        <polygon id="unit-551" stroke="#000000" fill="#FFFFFF" fill-rule="nonzero" points="302.857292 58.9679621 268.621393 58.9679621 268.621393 57.1049406 258.116903 57.1049406 258.116903 58.9372635 234.049143 58.9372635 234.049143 55.4539314 234.049143 4.04816168 263.685375 4.04816168 263.685375 2.13813298 285.529004 2.13813298 285.529004 27.5162842 294.040305 27.5162842 294.040305 35.7540624 302.857292 35.7540624"></polygon>
        <polygon id="unit-561" stroke="#000000" fill="#FFFFFF" fill-rule="nonzero" points="190.718935 2.22600773 187.007578 2.22600773 187.007578 0.213330589 166.420234 0.213330589 166.420234 2.02167016 153.772107 2.02167016 153.772107 58.9464731 159.663514 58.9464731 159.663514 57.1247028 169.998392 57.1247028 169.998392 42.7404888 190.503325 42.7404888"></polygon>
        <polygon id="unit-563" stroke="#000000" fill="#FFFFFF" fill-rule="nonzero" points="82.2418167 2.02128643 153.870137 2.02128643 153.870137 58.9470487 130.769266 58.9470487 130.769266 57.0907425 120.373059 57.0907425 120.373059 58.7417517 112.232606 58.7417517 112.232606 60.7304456 70.4628352 60.7304456 70.4628352 38.588119 82.2130688 38.588119"></polygon>
        <polygon id="unit-564" stroke="#000000" fill="#FFFFFF" fill-rule="nonzero" points="70.4633143 60.7307334 70.4633143 92.004935 74.4573588 92.004935 74.4573588 126.563887 96.7782031 126.563887 96.7782031 128.522842 124.268882 128.522842 124.268882 71.3725959 112.090304 71.3725959 112.090304 60.7307334"></polygon>
        <polygon id="unit-562" stroke="#000000" fill="#FFFFFF" fill-rule="nonzero" points="124.269265 124.604933 148.418477 124.661533 155.970556 132.44171 171.97644 116.128281 171.97644 94.880051 196.716901 94.880051 196.716901 71.3725959 153.454155 71.3725959 153.454155 73.3574525 143.122152 73.3574525 143.122152 71.3725959 124.269265 71.3725959"></polygon>
        <polygon id="unit-549" stroke="#000000" fill="#FFFFFF" fill-rule="nonzero" points="217.941491 108.797071 217.941491 133.118039 214.659437 133.118039 214.659437 143.472102 216.749411 143.472102 216.749411 155.601887 215.63495 155.601887 215.591828 164.207089 163.756451 164.207089 163.824488 140.616173 155.970556 132.44171 171.97644 116.128281 171.97644 94.880051 196.716901 94.880051 196.716901 108.797071"></polygon>
        <polygon id="unit-543" stroke="#000000" fill="#FFFFFF" fill-rule="nonzero" points="159.477994 304.583358 216.607779 304.583358 216.607779 320.291366 214.65867 320.291366 214.65867 327.351771 216.563699 327.351771 216.563699 352.705078 155.625 352.705078 155.625 344.763347 159.526801 344.763347"></polygon>
        <polygon id="unit-545" stroke="#000000" fill="#FFFFFF" fill-rule="nonzero" points="157.399423 252.275391 181.634766 252.275391 181.634766 244.232422 190.814453 244.232422 190.814453 236.55166 213.980469 236.55166 213.980469 235.982647 216.919119 235.983899 216.919119 259.722798 214.69978 259.722798 214.69978 274.66322 216.607684 274.66322 216.607684 304.583358 159.478856 304.583358 159.478856 273.935718 157.399423 273.935718"></polygon>
        <polygon id="unit-547" stroke="#000000" fill="#FFFFFF" fill-rule="nonzero" points="158.70758 196.478516 213.980469 196.478516 213.980469 236.55166 190.814453 236.55166 190.814453 244.232422 181.634766 244.232422 181.634766 252.275391 156.478217 252.275391 156.478217 236.55166 156.478217 205.98778 158.70758 205.98778"></polygon>
        <polygon id="unit-546" stroke="#000000" fill="#FFFFFF" fill-rule="nonzero" points="285.440857 248.575743 287.628882 248.575743 287.628882 286.000218 228.42158 286.000218 228.42158 248.575743 228.732807 248.575743 228.732807 246.41498 230.603488 246.41498 230.603488 236.062519 228.684156 236.062519 228.800537 215.533791 285.440857 215.533791"></polygon>
        <polygon id="unit-536" stroke="#000000" fill="#FFFFFF" fill-rule="nonzero" points="230.942793 496.510868 281.697114 496.510868 281.697114 468.85346 293.051939 458.38352 258.0907475 420.294921875 230.119478 442.6445313"></polygon>
    </g>
    <g class="unused-spaces" transform="translate(44.717668, 6.250000)" fill-rule="nonzero" stroke="#000000">
        <polygon id="Fill-165" fill="#A5A5A5" points="240.61564 627.816742 238.08774 627.816742 196.265264 627.816742 196.265264 612.236242 240.61564 612.236242"></polygon>
        <polygon id="Fill-167" fill="#A5A5A5" points="477.752546 704.312 498.714572 704.312 498.714572 688.654753 477.752546 688.654753"></polygon>
        <polygon id="Fill-174" fill="#A5A5A5" points="99.4831393 750.876025 116.969541 750.876025 116.969541 734.427329 99.4831393 734.427329"></polygon>
        <polygon id="Fill-176" fill="#A5A5A5" points="0 788.010781 15.4864017 788.010781 15.4864017 739.915664 0 739.915664"></polygon>
        <polygon id="Fill-267" fill="#A5A5A5" points="456.273249 663.335409 478.026801 663.335409 478.026801 713.543933 460.955669 713.543933 460.955669 718.161195 456.273249 718.161195"></polygon>
        <polygon id="Fill-300" fill="#FFFFFF" points="114.417411 485.124795 114.417411 519.33025 112.564586 519.33025 112.564586 555.509766 169.283888 555.509766 169.283888 485.226562"></polygon>
        <polygon id="Fill-138" fill="#A5A5A5" points="419.830181 65.2160158 430.135182 65.2160158 430.135182 67.354956 440.792206 67.354956 440.792206 118.485766 419.830181 118.485766"></polygon>
        <polygon id="Fill-142" fill="#A5A5A5" points="440.617201 106.797273 458.103603 106.797273 458.103603 91.2167731 440.617201 91.2167731"></polygon>
        <polygon id="Fill-152" fill="#A5A5A5" points="145.169667 0 165.943873 0 165.943873 53.2697505 156.908402 53.2697505 156.908402 50.9184294 147.025825 50.9184294 147.025825 52.3267278 124.449124 52.3267278 124.449124 36.5821819 144.954058 36.5821819"></polygon>
        <polygon id="Fill-158" fill="#A5A5A5" points="151.167634 65.2916112 154.525391 65.2916112 154.525391 68.3518781 164.643701 68.3518781 172.921186 76.6395415 172.921186 90.3493457 170.253378 90.3493457 170.253378 100.006934 172.392224 100.006934 172.392224 102.716086 151.167634 102.716086"></polygon>
        <polygon id="Fill-161" fill="#A5A5A5" points="185.129347 103.223188 185.129347 100.006551 187.07654 100.006551 187.07654 90.641558 206.091373 90.641558 206.091373 103.223188"></polygon>
        <polygon id="Fill-183" fill="#A5A5A5" points="125.248412 174.367776 144.406985 174.367776 144.406985 158.074493 125.248412 158.074493"></polygon>
        <polygon id="Fill-211" fill="#A5A5A5" points="114.090386 166.27102 125.157377 166.27102 125.157377 158.094639 114.090386 158.094639"></polygon>
        <polygon id="Fill-183" fill="#A5A5A5" points="125.248412 470.367776 144.406985 470.367776 144.406985 454.074493 125.248412 454.074493"></polygon>
        <polygon id="Fill-211" fill="#A5A5A5" points="114.090386 462.27102 125.157377 462.27102 125.157377 454.094639 114.090386 454.094639"></polygon>
    </g>
    <g class="unit-labels" transform="translate(14.000000, 22.000000)" fill="#000000" font-family="Roboto-Regular, Roboto" font-size="12" font-weight="normal">
        <text id="548">
            <tspan x="238.892578" y="172">548</tspan>
        </text>
        <text id="546">
            <tspan x="234.392578" y="236">546</tspan>
        </text>
        <text id="544">
            <tspan x="233.392578" y="296">544</tspan>
        </text>
        <text id="540">
            <tspan x="269.392578" y="337">540</tspan>
        </text>
        <text id="The-Overlook-Terrace" line-spacing="13">
            <tspan x="335.017578" y="337">The</tspan>
            <tspan x="321.5" y="350">Overlook</tspan>
            <tspan x="324.795898" y="363">Terrace</tspan>
        </text>
        <text id="536">
            <tspan x="232.392578" y="449">536</tspan>
        </text>
        <text id="534">
            <tspan x="234.392578" y="512">534</tspan>
        </text>
        <text id="532">
            <tspan x="234.392578" y="571">532</tspan>
        </text>
        <text id="563">
            <tspan x="91.8925781" y="13">563</tspan>
        </text>
        <text id="561">
            <tspan x="147.892578" y="13">561</tspan>
        </text>
        <text id="551">
            <tspan x="233.892578" y="13">551</tspan>
        </text>
        <text id="553">
            <tspan x="299.892578" y="13">553</tspan>
        </text>
        <text id="555">
            <tspan x="364.892578" y="13">555</tspan>
        </text>
        <text id="557">
            <tspan x="435.892578" y="13">557</tspan>
        </text>
        <text id="559">
            <tspan x="508.892578" y="13">559</tspan>
        </text>
        <text id="564">
            <tspan x="73.8925781" y="82">564</tspan>
        </text>
        <text id="562">
            <tspan x="123.892578" y="82">562</tspan>
        </text>
        <text id="549">
            <tspan x="162.892578" y="115">549</tspan>
        </text>
        <text id="547">
            <tspan x="161.892578" y="201">547</tspan>
        </text>
        <text id="545">
            <tspan x="161.892578" y="259">545</tspan>
        </text>
        <text id="543">
            <tspan x="161.892578" y="311">543</tspan>
        </text>
        <text id="541">
            <tspan x="161.892578" y="366">541</tspan>
        </text>
        <text id="535">
            <tspan x="160.892578" y="417">535</tspan>
        </text>
        <text id="533">
            <tspan x="160.892578" y="509">533</tspan>
        </text>
        <text id="531">
            <tspan x="160.892578" y="581">531</tspan>
        </text>
        <text id="529">
            <tspan x="160.892578" y="645">529</tspan>
        </text>
        <text id="512">
            <tspan x="126.892578" y="680">512</tspan>
        </text>
        <text id="510">
            <tspan x="67.8925781" y="680">510</tspan>
        </text>
        <text id="508">
            <tspan x="7.89257812" y="680">508</tspan>
        </text>
        <text id="509">
            <tspan x="0.892578125" y="753">509</tspan>
        </text>
        <text id="511">
            <tspan x="77.8925781" y="752">511</tspan>
        </text>
        <text id="513">
            <tspan x="138.892578" y="752">513</tspan>
        </text>
        <text id="515">
            <tspan x="172.892578" y="752">515</tspan>
        </text>
        <text id="517">
            <tspan x="239.892578" y="752">517</tspan>
        </text>
        <text id="519">
            <tspan x="294.892578" y="752">519</tspan>
        </text>
        <text id="521">
            <tspan x="360.892578" y="752">521</tspan>
        </text>
        <text id="523">
            <tspan x="427.892578" y="752">523</tspan>
        </text>
        <text id="525">
            <tspan x="497.892578" y="752">525</tspan>
        </text>
        <text id="527">
            <tspan x="520.892578" y="664">527</tspan>
        </text>
        <text id="526">
            <tspan x="446.892578" y="676">526</tspan>
        </text>
        <text id="524">
            <tspan x="394.892578" y="676">524</tspan>
        </text>
        <text id="522">
            <tspan x="349.892578" y="676">522</tspan>
        </text>
        <text id="420">
            <tspan x="306.892578" y="676">520</tspan>
        </text>
        <text id="518">
            <tspan x="264.892578" y="676">518</tspan>
        </text>
        <text id="530">
            <tspan x="233.892578" y="646">530</tspan>
        </text>
        <text id="550">
            <tspan x="229.892578" y="115">550</tspan>
        </text>
        <text id="554">
            <tspan x="271.892578" y="82">554</tspan>
        </text>
        <text id="556">
            <tspan x="331.892578" y="82">556</tspan>
        </text>
        <text id="558">
            <tspan x="403.892578" y="82">558</tspan>
        </text>
        <text id="560">
            <tspan x="511.892578" y="82">560</tspan>
        </text>
    </g>
</svg>